<?xml version="1.0" encoding="UTF-8" standalone="no"?>
<svg
   enable-background="new 0 0 595.201 841.92"
   viewBox="0 0 74.999999 75"
   version="1.1"
   id="svg1"
   width="75"
   height="75"
   sodipodi:docname="bomb_damage_icon.svg"
   inkscape:version="1.4.2 (ebf0e94, 2025-05-08)"
   xmlns:inkscape="http://www.inkscape.org/namespaces/inkscape"
   xmlns:sodipodi="http://sodipodi.sourceforge.net/DTD/sodipodi-0.dtd"
   xmlns="http://www.w3.org/2000/svg"
   xmlns:svg="http://www.w3.org/2000/svg">
  <sodipodi:namedview
     id="namedview1"
     pagecolor="#ffffff"
     bordercolor="#000000"
     borderopacity="0.25"
     inkscape:showpageshadow="2"
     inkscape:pageopacity="0.0"
     inkscape:pagecheckerboard="0"
     inkscape:deskcolor="#d1d1d1"
     showgrid="false"
     inkscape:zoom="3.4147527"
     inkscape:cx="3.9534342"
     inkscape:cy="37.191566"
     inkscape:window-width="1366"
     inkscape:window-height="731"
     inkscape:window-x="0"
     inkscape:window-y="0"
     inkscape:window-maximized="1"
     inkscape:current-layer="svg1" />
  <defs
     id="defs1" />
  <g
     id="g2"
     transform="matrix(0.81309088,0,0,0.81309088,10.351695,0.26004264)">
    <path
       id="rect4-9"
       style="stroke:#f2f2f2;stroke-width:0"
       d="M 21.997505,22.293292 37.3054,20.843494 40.224841,42.578569 23.148464,41.4598 Z"
       sodipodi:nodetypes="ccccc" />
    <path
       d="m 37.071778,2.7559103 c -3.305592,0.044503 -6.227502,1.5162768 -8.121094,3.6738282 -1.12481,1.2815484 -2.070178,3.0117984 -2.451172,4.9531255 -0.393182,2.002778 -0.170791,3.88599 -0.193359,5.974609 l 5.457031,-0.607422 c -0.04426,-2.397173 -0.233208,-4.722755 1.101563,-6.464844 1.26379,-1.6494871 3.507568,-2.7491031 6.177734,-1.7832031 2.289103,0.827951 3.599137,2.6709811 3.71875,4.9785161 0.132327,2.558333 0.652764,4.409319 1.916016,6.222656 1.23602,1.773558 2.847989,3.099101 5.166015,3.976562 2.567926,0.972053 5.208027,0.853357 7.414063,0.19336 3.84904,-1.1514 7.33144,-4.927225 7.416015,-10.56836 -0.744078,-1.990794 -5.223411,-1.797469 -5.509765,-0.01172 0.08401,3.874617 -2.962954,5.984279 -6.044922,5.677735 C 50.336322,18.694597 48.366455,16.532566 48.216309,13.785206 48.067602,11.070794 47.325876,8.6467869 45.683106,6.7012218 44.324671,5.0923078 42.306723,3.606951 39.675294,3.0215343 39.299376,2.9379043 38.910032,2.870776 38.509278,2.8262218 c -0.486088,-0.054057 -0.965273,-0.07667 -1.4375,-0.070311 z"
       style="fill-rule:evenodd;stroke-width:0.207868"
       id="path7-2"
       sodipodi:nodetypes="sccccccccsccccccscs" />
    <g
       id="g4"
       transform="translate(0,13.110944)">
      <ellipse
         style="fill:#000000;stroke:#f2f2f2;stroke-width:0"
         id="path3-0"
         cx="31.950001"
         cy="44.25"
         rx="29.845308"
         ry="31.485161" />
      <g
         id="g12"
         transform="matrix(1.442208,-0.30212231,0.30212231,1.442208,-33.195301,-24.784055)" />
    </g>
    <path
       id="rect5-2"
       style="stroke:#f2f2f2;stroke-width:0"
       d="M 23.189411,16.563224 35.298742,15.4631 36.16218,25.939359 23.938354,27.669198 Z"
       sodipodi:nodetypes="ccccc" />
  </g>
  <g
     id="g15"
     transform="matrix(1.2079582,0,0,1.2079582,33.010896,-46.175121)"
     style="fill:#f2f2f2">
    <path
       id="path10"
       style="fill:#f2f2f2;fill-opacity:1;stroke-width:1.03863"
       d="m 28.569127,38.225761 c -0.08802,0.120876 -0.186114,0.236978 -0.29346,0.346873 l -2.951617,3.02172 c -1.192923,1.221256 -3.113997,1.221256 -4.30692,0 l -2.951617,-3.02172 c -0.107346,-0.109895 -0.205433,-0.225997 -0.293461,-0.346873 -0.890204,1.222409 -0.792116,2.950979 0.293461,4.06234 l 2.951617,3.021718 c 1.192923,1.221256 3.113997,1.221256 4.30692,0 l 2.951617,-3.021718 c 1.085577,-1.111361 1.183665,-2.839931 0.29346,-4.06234 z"
       inkscape:transform-center-y="-10.240213" />
    <path
       id="path13"
       style="fill:#f2f2f2;fill-opacity:1;stroke-width:1.03863"
       d="m 34.760395,55.214103 c -0.120876,-0.08802 -0.236978,-0.186114 -0.346873,-0.29346 l -3.02172,-2.951617 c -1.221256,-1.192923 -1.221256,-3.113997 0,-4.30692 l 3.02172,-2.951617 c 0.109895,-0.107346 0.225997,-0.205433 0.346873,-0.293461 -1.222409,-0.890204 -2.950979,-0.792116 -4.06234,0.293461 l -3.021718,2.951617 c -1.221256,1.192923 -1.221256,3.113997 0,4.30692 l 3.021718,2.951617 c 1.111361,1.085577 2.839931,1.183665 4.06234,0.29346 z"
       inkscape:transform-center-y="-7.5898049" />
    <path
       id="path14"
       style="fill:#f2f2f2;fill-opacity:1;stroke-width:1.03863"
       d="m 17.772053,61.405371 c 0.08802,-0.120876 0.186114,-0.236978 0.29346,-0.346873 l 2.951617,-3.02172 c 1.192923,-1.221256 3.113997,-1.221256 4.30692,0 l 2.951617,3.02172 c 0.107346,0.109895 0.205433,0.225997 0.293461,0.346873 0.890204,-1.222409 0.792116,-2.950979 -0.293461,-4.06234 L 25.32405,54.321313 c -1.192923,-1.221256 -3.113997,-1.221256 -4.30692,0 l -2.951617,3.021718 c -1.085577,1.111361 -1.183665,2.839931 -0.29346,4.06234 z"
       inkscape:transform-center-y="-7.5898049" />
    <path
       id="rect1"
       style="fill:#f2f2f2;fill-opacity:1;stroke-width:1.03863"
       d="m 11.580785,44.417029 c 0.120876,0.08802 0.236978,0.186114 0.346873,0.29346 l 3.02172,2.951617 c 1.221256,1.192923 1.221256,3.113997 0,4.30692 l -3.02172,2.951617 c -0.109895,0.107346 -0.225997,0.205433 -0.346873,0.293461 1.222409,0.890204 2.950979,0.792116 4.06234,-0.293461 l 3.021718,-2.951617 c 1.221256,-1.192923 1.221256,-3.113997 0,-4.30692 l -3.021718,-2.951617 c -1.111361,-1.085577 -2.839931,-1.183665 -4.06234,-0.29346 z"
       inkscape:transform-center-x="7.5898049" />
  </g>
</svg>
