<?xml version="1.0" encoding="UTF-8" standalone="no"?>
<svg
   enable-background="new 0 0 595.201 841.92"
   viewBox="0 0 74.999999 75"
   version="1.1"
   id="svg1"
   width="75"
   height="75"
   xml:space="preserve"
   sodipodi:docname="bomb_place_delay_icon.svg"
   inkscape:version="1.4.2 (ebf0e94, 2025-05-08)"
   xmlns:inkscape="http://www.inkscape.org/namespaces/inkscape"
   xmlns:sodipodi="http://sodipodi.sourceforge.net/DTD/sodipodi-0.dtd"
   xmlns="http://www.w3.org/2000/svg"
   xmlns:svg="http://www.w3.org/2000/svg"><sodipodi:namedview
     id="namedview1"
     pagecolor="#ffffff"
     bordercolor="#000000"
     borderopacity="0.25"
     inkscape:showpageshadow="2"
     inkscape:pageopacity="0.0"
     inkscape:pagecheckerboard="0"
     inkscape:deskcolor="#d1d1d1"
     inkscape:zoom="2.9923514"
     inkscape:cx="11.529395"
     inkscape:cy="46.785949"
     inkscape:window-width="1366"
     inkscape:window-height="731"
     inkscape:window-x="0"
     inkscape:window-y="0"
     inkscape:window-maximized="1"
     inkscape:current-layer="svg1"
     showgrid="false" /><defs
     id="defs1" /><g
     id="g2"
     transform="matrix(0.81309088,0,0,0.81309088,10.351695,0.26004264)"><path
       id="rect4-9"
       style="stroke:#f2f2f2;stroke-width:0"
       d="M 21.997505,22.293292 37.3054,20.843494 40.224841,42.578569 23.148464,41.4598 Z"
       sodipodi:nodetypes="ccccc" /><path
       d="m 37.071778,2.7559103 c -3.305592,0.044503 -6.227502,1.5162768 -8.121094,3.6738282 -1.12481,1.2815484 -2.070178,3.0117984 -2.451172,4.9531255 -0.393182,2.002778 -0.170791,3.88599 -0.193359,5.974609 l 5.457031,-0.607422 c -0.04426,-2.397173 -0.233208,-4.722755 1.101563,-6.464844 1.26379,-1.6494871 3.507568,-2.7491031 6.177734,-1.7832031 2.289103,0.827951 3.599137,2.6709811 3.71875,4.9785161 0.132327,2.558333 0.652764,4.409319 1.916016,6.222656 1.23602,1.773558 2.847989,3.099101 5.166015,3.976562 2.567926,0.972053 5.208027,0.853357 7.414063,0.19336 3.84904,-1.1514 7.33144,-4.927225 7.416015,-10.56836 -0.744078,-1.990794 -5.223411,-1.797469 -5.509765,-0.01172 0.08401,3.874617 -2.962954,5.984279 -6.044922,5.677735 C 50.336322,18.694597 48.366455,16.532566 48.216309,13.785206 48.067602,11.070794 47.325876,8.6467869 45.683106,6.7012218 44.324671,5.0923078 42.306723,3.606951 39.675294,3.0215343 39.299376,2.9379043 38.910032,2.870776 38.509278,2.8262218 c -0.486088,-0.054057 -0.965273,-0.07667 -1.4375,-0.070311 z"
       style="fill-rule:evenodd;stroke-width:0.207868"
       id="path7-2"
       sodipodi:nodetypes="sccccccccsccccccscs" /><g
       id="g4"
       transform="translate(0,13.110944)"><ellipse
         style="fill:#000000;stroke:#f2f2f2;stroke-width:0"
         id="path3-0"
         cx="31.950001"
         cy="44.25"
         rx="29.845308"
         ry="31.485161" /><g
         id="g12-7"
         transform="matrix(1.442208,-0.30212231,0.30212231,1.442208,-33.195301,-24.784055)" /></g><path
       id="rect5-2"
       style="stroke:#f2f2f2;stroke-width:0"
       d="M 23.189411,16.563224 35.298742,15.4631 36.16218,25.939359 23.938354,27.669198 Z"
       sodipodi:nodetypes="ccccc" /></g><g
     id="g12"
     transform="matrix(1.6393665,0,0,1.6393665,10.989662,-67.223568)"
     style="fill:#f2f2f2"><path
       d="m 25.318359,47.939453 a 0.43176693,0.43176693 0 0 0 -0.296875,0.128906 l -1.441406,1.44336 a 0.43176693,0.43176693 0 1 0 0.609375,0.609375 l 1.443359,-1.441407 a 0.43176693,0.43176693 0 0 0 -0.314453,-0.740234 z"
       style="fill:#f2f2f2;fill-rule:evenodd"
       id="path12" /><path
       d="m 22.408203,45.914062 a 0.43176693,0.43176693 0 1 0 0,0.863282 h 2.242188 a 0.43176693,0.43176693 0 1 0 0,-0.863282 z"
       style="fill:#f2f2f2;fill-rule:evenodd"
       id="path11" /><path
       d="m 23.839844,42.478516 a 0.43176693,0.43176693 0 0 0 -0.300782,0.740234 l 1.240235,1.240234 a 0.43176693,0.43176693 0 1 0 0.611328,-0.609375 l -1.240234,-1.240234 a 0.43176693,0.43176693 0 0 0 -0.310547,-0.130859 z"
       style="fill:#f2f2f2;fill-rule:evenodd"
       id="path10" /><path
       d="m 27.306641,41.005859 a 0.43176693,0.43176693 0 0 0 -0.425782,0.4375 v 1.742188 a 0.43196324,0.43196324 0 0 0 0.863282,0 v -1.742188 a 0.43176693,0.43176693 0 0 0 -0.4375,-0.4375 z"
       style="fill:#f2f2f2;fill-rule:evenodd"
       id="path9" /><path
       d="m 30.771484,42.478516 a 0.43176693,0.43176693 0 0 0 -0.296875,0.130859 l -1.4375,1.435547 a 0.43227426,0.43227426 0 1 0 0.611328,0.611328 l 1.4375,-1.4375 a 0.43176693,0.43176693 0 0 0 -0.314453,-0.740234 z"
       style="fill:#f2f2f2;fill-rule:evenodd"
       id="path8" /><path
       d="m 26.603516,44.994141 c -0.422056,-0.0067 -0.723699,0.403705 -0.591797,0.804687 l 3.884765,11.839844 c 0.164203,0.497178 0.835827,0.57456 1.107422,0.126953 l 1.777344,-2.933594 2.556641,2.558594 c 0.239589,0.239509 0.627555,0.239509 0.867187,0 l 2.173828,-2.173828 c 0.239467,-0.239571 0.239467,-0.627617 0,-0.867188 L 35.822266,51.792969 38.75,50.017578 c 0.447644,-0.271595 0.372166,-0.943189 -0.125,-1.107422 L 26.785156,45.025391 c -0.0584,-0.01963 -0.1201,-0.03002 -0.18164,-0.03125 z"
       style="fill:#f2f2f2"
       id="path7" /></g></svg>
