<?xml version="1.0" encoding="UTF-8" standalone="no"?>
<!-- Created with Inkscape (http://www.inkscape.org/) -->

<svg
   width="75"
   height="75"
   viewBox="0 0 19.84375 19.84375"
   version="1.1"
   id="svg1"
   inkscape:version="1.4.2 (ebf0e94, 2025-05-08)"
   sodipodi:docname="bouncy_ball_chance_icon.svg"
   inkscape:export-filename="/home/maximuskatsoulis985/Detonometry/upgrade system/assets/upgrade_overlays/bouncy_ball.svg"
   inkscape:export-xdpi="96"
   inkscape:export-ydpi="96"
   xml:space="preserve"
   xmlns:inkscape="http://www.inkscape.org/namespaces/inkscape"
   xmlns:sodipodi="http://sodipodi.sourceforge.net/DTD/sodipodi-0.dtd"
   xmlns="http://www.w3.org/2000/svg"
   xmlns:svg="http://www.w3.org/2000/svg"><sodipodi:namedview
     id="namedview1"
     pagecolor="#ffffff"
     bordercolor="#000000"
     borderopacity="0.25"
     inkscape:showpageshadow="2"
     inkscape:pageopacity="0.0"
     inkscape:pagecheckerboard="0"
     inkscape:deskcolor="#d1d1d1"
     inkscape:document-units="mm"
     inkscape:zoom="4.0839685"
     inkscape:cx="16.038322"
     inkscape:cy="0.24485987"
     inkscape:window-width="1366"
     inkscape:window-height="731"
     inkscape:window-x="0"
     inkscape:window-y="0"
     inkscape:window-maximized="1"
     inkscape:current-layer="layer1"><inkscape:page
       x="0"
       y="0"
       width="19.84375"
       height="19.84375"
       id="page2"
       margin="0"
       bleed="0" /></sodipodi:namedview><defs
     id="defs1" /><g
     inkscape:label="Layer 1"
     inkscape:groupmode="layer"
     id="layer1"><path
       d="M 9.9220739,3.571875 A 6.3500893,6.3500893 0 0 0 3.571875,9.9220739 6.3500893,6.3500893 0 0 0 9.9220739,16.271875 6.3500893,6.3500893 0 0 0 16.271875,9.9220739 6.3500893,6.3500893 0 0 0 9.9220739,3.571875 Z m 2.4239341,4.2615742 a 0.84883691,2.1873875 0 0 1 0.848815,2.1876668 0.84883691,2.1873875 0 0 1 -0.848815,2.187268 0.84883691,2.1873875 0 0 1 -0.848814,-2.187268 0.84883691,2.1873875 0 0 1 0.848814,-2.1876668 z m -4.7492246,0.00556 A 0.84883691,2.1873875 0 0 1 8.4455979,10.026283 0.84883691,2.1873875 0 0 1 7.5967834,12.213949 0.84883691,2.1873875 0 0 1 6.7479688,10.026283 0.84883691,2.1873875 0 0 1 7.5967834,7.8390142 Z"
       style="fill:#000000;stroke:#ffffff;stroke-width:0"
       id="path3" /><g
       id="g7"
       transform="matrix(1.6054142,0,0,1.6054142,10.099205,-3.1857438)"><g
         id="g2"
         transform="matrix(0.21646125,-0.21646125,0.17317336,0.17317336,-2.5053632,5.8429815)"><rect
           style="fill:#f2f2f2;stroke-width:0.455372"
           id="rect1"
           width="2.0765955"
           height="4.453548"
           x="16.742512"
           y="6.2624388" /><path
           style="fill:#f2f2f2;stroke-width:0.264583"
           id="path2"
           d="M 19.341832,3.1071216 11.82398,3.1364243 15.557529,-3.388878 Z"
           transform="matrix(0.98543217,0,0,0.973135,2.4249129,3.2102745)" /></g><g
         id="g4"
         transform="matrix(0.21646125,0.21646125,-0.17317336,0.17317336,2.2003684,-1.8439049)"><rect
           style="fill:#f2f2f2;stroke-width:0.455372"
           id="rect2"
           width="2.0765955"
           height="4.453548"
           x="16.742512"
           y="6.2624388" /><path
           style="fill:#f2f2f2;stroke-width:0.264583"
           id="path4"
           d="M 19.341832,3.1071216 11.82398,3.1364243 15.557529,-3.388878 Z"
           transform="matrix(0.98543217,0,0,0.973135,2.4249129,3.2102745)" /></g><g
         id="g5"
         transform="matrix(-0.21646125,-0.21646125,0.17317336,-0.17317336,5.1815231,10.427248)"><rect
           style="fill:#f2f2f2;stroke-width:0.455372"
           id="rect4"
           width="2.0765955"
           height="4.453548"
           x="16.742512"
           y="6.2624388" /><path
           style="fill:#f2f2f2;stroke-width:0.264583"
           id="path5"
           d="M 19.341832,3.1071216 11.82398,3.1364243 15.557529,-3.388878 Z"
           transform="matrix(0.98543217,0,0,0.973135,2.4249129,3.2102745)" /></g><g
         id="g6"
         transform="matrix(-0.21646125,0.21646125,-0.17317336,-0.17317336,9.8980809,2.7295351)"><rect
           style="fill:#f2f2f2;stroke-width:0.455372"
           id="rect5"
           width="2.0765955"
           height="4.453548"
           x="16.742512"
           y="6.2624388" /><path
           style="fill:#f2f2f2;stroke-width:0.264583"
           id="path6"
           d="M 19.341832,3.1071216 11.82398,3.1364243 15.557529,-3.388878 Z"
           transform="matrix(0.98543217,0,0,0.973135,2.4249129,3.2102745)" /></g></g></g></svg>
