<?xml version="1.0" encoding="UTF-8" standalone="no"?>
<!-- Created with Inkscape (http://www.inkscape.org/) -->

<svg
   width="75"
   height="75"
   viewBox="0 0 19.84375 19.84375"
   version="1.1"
   id="svg1"
   xml:space="preserve"
   sodipodi:docname="bouncy_ball_damage_icon.svg"
   inkscape:version="1.4.2 (ebf0e94, 2025-05-08)"
   xmlns:inkscape="http://www.inkscape.org/namespaces/inkscape"
   xmlns:sodipodi="http://sodipodi.sourceforge.net/DTD/sodipodi-0.dtd"
   xmlns="http://www.w3.org/2000/svg"
   xmlns:svg="http://www.w3.org/2000/svg"><sodipodi:namedview
     id="namedview1"
     pagecolor="#ffffff"
     bordercolor="#000000"
     borderopacity="0.25"
     inkscape:showpageshadow="2"
     inkscape:pageopacity="0.0"
     inkscape:pagecheckerboard="0"
     inkscape:deskcolor="#d1d1d1"
     inkscape:document-units="mm"
     inkscape:zoom="5.5964833"
     inkscape:cx="20.191251"
     inkscape:cy="37.523564"
     inkscape:window-width="1366"
     inkscape:window-height="731"
     inkscape:window-x="0"
     inkscape:window-y="0"
     inkscape:window-maximized="1"
     inkscape:current-layer="layer1"><inkscape:page
       x="0"
       y="0"
       width="19.84375"
       height="19.84375"
       id="page2"
       margin="0"
       bleed="0" /></sodipodi:namedview><defs
     id="defs1" /><g
     inkscape:label="Layer 1"
     inkscape:groupmode="layer"
     id="layer1"><g
       inkscape:label="Layer 1"
       id="layer1-6"
       transform="translate(-6.1501141,8.6687324)"><path
         d="M 16.072188,-5.0968574 A 6.3500893,6.3500893 0 0 0 9.7219892,1.2533415 6.3500893,6.3500893 0 0 0 16.072188,7.6031426 6.3500893,6.3500893 0 0 0 22.421989,1.2533415 6.3500893,6.3500893 0 0 0 16.072188,-5.0968574 Z m 2.423934,4.26157418 a 0.84883691,2.1873875 0 0 1 0.848815,2.18766682 0.84883691,2.1873875 0 0 1 -0.848815,2.187268 0.84883691,2.1873875 0 0 1 -0.848814,-2.187268 0.84883691,2.1873875 0 0 1 0.848814,-2.18766682 z m -4.749224,0.00556 a 0.84883691,2.1873875 0 0 1 0.848814,2.18727382 0.84883691,2.1873875 0 0 1 -0.848814,2.187666 0.84883691,2.1873875 0 0 1 -0.848815,-2.187666 0.84883691,2.1873875 0 0 1 0.848815,-2.18726882 z"
         style="fill:#000000;stroke:#ffffff;stroke-width:0"
         id="path3" /></g><rect
       style="fill:#f2f2f2;fill-opacity:1;stroke:#f2f2f2;stroke-width:0"
       id="rect2"
       width="1.5875"
       height="7.4083333"
       x="18.263737"
       y="0.0029009806" /><ellipse
       style="fill:#f2f2f2;fill-opacity:1;stroke:#f2f2f2;stroke-width:0"
       id="path2"
       cx="7.811233"
       cy="14.988204"
       rx="0.31377918"
       ry="1.0554391"
       transform="rotate(-56.584529)" /><ellipse
       style="fill:#f2f2f2;fill-opacity:1;stroke:#f2f2f2;stroke-width:0"
       id="ellipse2"
       cx="-5.7818909"
       cy="16.111397"
       rx="0.31377918"
       ry="1.0554391"
       transform="rotate(-97.934035)" /><ellipse
       style="fill:#f2f2f2;fill-opacity:1;stroke:#f2f2f2;stroke-width:0"
       id="ellipse3"
       cx="-14.405595"
       cy="10.524926"
       rx="0.31377918"
       ry="1.0554391"
       transform="rotate(-127.90511)" /></g></svg>
