<?xml version="1.0" encoding="UTF-8" standalone="no"?>
<!-- Created with Inkscape (http://www.inkscape.org/) -->

<svg
   width="75"
   height="75"
   viewBox="0 0 19.84375 19.84375"
   version="1.1"
   id="svg1"
   xml:space="preserve"
   sodipodi:docname="bouncy_ball_damage_icon.svg"
   inkscape:version="1.4.2 (ebf0e94, 2025-05-08)"
   xmlns:inkscape="http://www.inkscape.org/namespaces/inkscape"
   xmlns:sodipodi="http://sodipodi.sourceforge.net/DTD/sodipodi-0.dtd"
   xmlns="http://www.w3.org/2000/svg"
   xmlns:svg="http://www.w3.org/2000/svg"><sodipodi:namedview
     id="namedview1"
     pagecolor="#ffffff"
     bordercolor="#000000"
     borderopacity="0.25"
     inkscape:showpageshadow="2"
     inkscape:pageopacity="0.0"
     inkscape:pagecheckerboard="0"
     inkscape:deskcolor="#d1d1d1"
     inkscape:document-units="mm"
     inkscape:zoom="3.9641379"
     inkscape:cx="15.387961"
     inkscape:cy="10.090466"
     inkscape:window-width="1366"
     inkscape:window-height="731"
     inkscape:window-x="0"
     inkscape:window-y="0"
     inkscape:window-maximized="1"
     inkscape:current-layer="layer1" /><defs
     id="defs1" /><g
     inkscape:label="Layer 1"
     inkscape:groupmode="layer"
     id="layer1"><g
       inkscape:label="Layer 1"
       id="layer1-6"
       transform="translate(-6.1501141,8.6687324)"><path
         d="M 16.072188,-5.0968574 A 6.3500893,6.3500893 0 0 0 9.7219892,1.2533415 6.3500893,6.3500893 0 0 0 16.072188,7.6031426 6.3500893,6.3500893 0 0 0 22.421989,1.2533415 6.3500893,6.3500893 0 0 0 16.072188,-5.0968574 Z m 2.423934,4.26157418 a 0.84883691,2.1873875 0 0 1 0.848815,2.18766682 0.84883691,2.1873875 0 0 1 -0.848815,2.187268 0.84883691,2.1873875 0 0 1 -0.848814,-2.187268 0.84883691,2.1873875 0 0 1 0.848814,-2.18766682 z m -4.749224,0.00556 a 0.84883691,2.1873875 0 0 1 0.848814,2.18727382 0.84883691,2.1873875 0 0 1 -0.848814,2.187666 0.84883691,2.1873875 0 0 1 -0.848815,-2.187666 0.84883691,2.1873875 0 0 1 0.848815,-2.18726882 z"
         style="fill:#000000;stroke:#ffffff;stroke-width:0"
         id="path3" /></g><g
       id="g1"
       transform="matrix(0.26458333,0,0,0.26458333,-21.261823,10.428718)"><g
         id="g15"
         transform="matrix(1.2079582,0,0,1.2079582,31.904014,-49.274391)"
         style="fill:#f2f2f2"><g
           id="g2"
           transform="translate(67.441515,-30.055458)"><path
             id="path10-2"
             style="fill:#f2f2f2;fill-opacity:1;stroke-width:1.03863"
             d="m 28.569127,38.225761 c -0.08802,0.120876 -0.186114,0.236978 -0.29346,0.346873 l -2.951617,3.02172 c -1.192923,1.221256 -3.113997,1.221256 -4.30692,0 l -2.951617,-3.02172 c -0.107346,-0.109895 -0.205433,-0.225997 -0.293461,-0.346873 -0.890204,1.222409 -0.792116,2.950979 0.293461,4.06234 l 2.951617,3.021718 c 1.192923,1.221256 3.113997,1.221256 4.30692,0 l 2.951617,-3.021718 c 1.085577,-1.111361 1.183665,-2.839931 0.29346,-4.06234 z"
             inkscape:transform-center-y="-10.240213" /><path
             id="path13"
             style="fill:#f2f2f2;fill-opacity:1;stroke-width:1.03863"
             d="m 34.760395,55.214103 c -0.120876,-0.08802 -0.236978,-0.186114 -0.346873,-0.29346 l -3.02172,-2.951617 c -1.221256,-1.192923 -1.221256,-3.113997 0,-4.30692 l 3.02172,-2.951617 c 0.109895,-0.107346 0.225997,-0.205433 0.346873,-0.293461 -1.222409,-0.890204 -2.950979,-0.792116 -4.06234,0.293461 l -3.021718,2.951617 c -1.221256,1.192923 -1.221256,3.113997 0,4.30692 l 3.021718,2.951617 c 1.111361,1.085577 2.839931,1.183665 4.06234,0.29346 z"
             inkscape:transform-center-y="-7.5898049" /><path
             id="path14"
             style="fill:#f2f2f2;fill-opacity:1;stroke-width:1.03863"
             d="m 17.772053,61.405371 c 0.08802,-0.120876 0.186114,-0.236978 0.29346,-0.346873 l 2.951617,-3.02172 c 1.192923,-1.221256 3.113997,-1.221256 4.30692,0 l 2.951617,3.02172 c 0.107346,0.109895 0.205433,0.225997 0.293461,0.346873 0.890204,-1.222409 0.792116,-2.950979 -0.293461,-4.06234 L 25.32405,54.321313 c -1.192923,-1.221256 -3.113997,-1.221256 -4.30692,0 l -2.951617,3.021718 c -1.085577,1.111361 -1.183665,2.839931 -0.29346,4.06234 z"
             inkscape:transform-center-y="-7.5898049" /><path
             id="rect1"
             style="fill:#f2f2f2;fill-opacity:1;stroke-width:1.03863"
             d="m 11.580785,44.417029 c 0.120876,0.08802 0.236978,0.186114 0.346873,0.29346 l 3.02172,2.951617 c 1.221256,1.192923 1.221256,3.113997 0,4.30692 l -3.02172,2.951617 c -0.109895,0.107346 -0.225997,0.205433 -0.346873,0.293461 1.222409,0.890204 2.950979,0.792116 4.06234,-0.293461 l 3.021718,-2.951617 c 1.221256,-1.192923 1.221256,-3.113997 0,-4.30692 l -3.021718,-2.951617 c -1.111361,-1.085577 -2.839931,-1.183665 -4.06234,-0.29346 z"
             inkscape:transform-center-x="7.5898049" /></g></g></g></g></svg>
