<?xml version="1.0" encoding="UTF-8" standalone="no"?>
<!-- Created with Inkscape (http://www.inkscape.org/) -->

<svg
   width="75"
   height="75"
   viewBox="0 0 19.84375 19.84375"
   version="1.1"
   id="svg1"
   inkscape:version="1.4.2 (ebf0e94, 2025-05-08)"
   sodipodi:docname="bouncy_ball_chance_icon.svg"
   inkscape:export-filename="/home/maximuskatsoulis985/Detonometry/upgrade system/assets/upgrade_overlays/bouncy_ball.svg"
   inkscape:export-xdpi="96"
   inkscape:export-ydpi="96"
   xml:space="preserve"
   xmlns:inkscape="http://www.inkscape.org/namespaces/inkscape"
   xmlns:sodipodi="http://sodipodi.sourceforge.net/DTD/sodipodi-0.dtd"
   xmlns="http://www.w3.org/2000/svg"
   xmlns:svg="http://www.w3.org/2000/svg"><sodipodi:namedview
     id="namedview1"
     pagecolor="#ffffff"
     bordercolor="#000000"
     borderopacity="0.25"
     inkscape:showpageshadow="2"
     inkscape:pageopacity="0.0"
     inkscape:pagecheckerboard="0"
     inkscape:deskcolor="#d1d1d1"
     inkscape:document-units="mm"
     inkscape:zoom="4.0839685"
     inkscape:cx="16.038322"
     inkscape:cy="0.24485987"
     inkscape:window-width="1366"
     inkscape:window-height="731"
     inkscape:window-x="0"
     inkscape:window-y="0"
     inkscape:window-maximized="1"
     inkscape:current-layer="layer1"><inkscape:page
       x="0"
       y="0"
       width="19.84375"
       height="19.84375"
       id="page2"
       margin="0"
       bleed="0" /></sodipodi:namedview><defs
     id="defs1" /><g
     inkscape:label="Layer 1"
     inkscape:groupmode="layer"
     id="layer1"><path
       d="M 9.9220739,3.571875 A 6.3500893,6.3500893 0 0 0 3.571875,9.9220739 6.3500893,6.3500893 0 0 0 9.9220739,16.271875 6.3500893,6.3500893 0 0 0 16.271875,9.9220739 6.3500893,6.3500893 0 0 0 9.9220739,3.571875 Z m 2.4239341,4.2615742 a 0.84883691,2.1873875 0 0 1 0.848815,2.1876668 0.84883691,2.1873875 0 0 1 -0.848815,2.187268 0.84883691,2.1873875 0 0 1 -0.848814,-2.187268 0.84883691,2.1873875 0 0 1 0.848814,-2.1876668 z m -4.7492246,0.00556 A 0.84883691,2.1873875 0 0 1 8.4455979,10.026283 0.84883691,2.1873875 0 0 1 7.5967834,12.213949 0.84883691,2.1873875 0 0 1 6.7479688,10.026283 0.84883691,2.1873875 0 0 1 7.5967834,7.8390142 Z"
       style="fill:#000000;stroke:#ffffff;stroke-width:0"
       id="path3" /><g
       id="g12"
       transform="matrix(1.9194761,0,0,1.8204433,-16.211948,-4.272648)"
       style="fill:#f2f2f2"><path
         d="m 15.850617,2.3470371 a 0.92604139,0.92604139 0 0 0 -0.926042,0.9260413 0.92604139,0.92604139 0 0 0 0.926042,0.9260414 0.92604139,0.92604139 0 0 0 0.926041,-0.9260414 0.92604139,0.92604139 0 0 0 -0.926041,-0.9260413 z m 0,0.4630207 a 0.46302068,0.46302068 0 0 1 0.46302,0.4630206 0.46302068,0.46302068 0 0 1 -0.46302,0.4630207 0.46302068,0.46302068 0 0 1 -0.463021,-0.4630207 0.46302068,0.46302068 0 0 1 0.463021,-0.4630206 z"
         style="fill:#f2f2f2;stroke:#000000;stroke-width:0"
         id="path9" /><path
         d="m 17.858094,4.5644761 a 0.92604139,0.92604139 0 0 0 -0.926042,0.9260413 0.92604139,0.92604139 0 0 0 0.926042,0.9260414 0.92604139,0.92604139 0 0 0 0.926041,-0.9260414 0.92604139,0.92604139 0 0 0 -0.926041,-0.9260413 z m 0,0.4630207 a 0.46302068,0.46302068 0 0 1 0.46302,0.4630206 0.46302068,0.46302068 0 0 1 -0.46302,0.4630207 0.46302068,0.46302068 0 0 1 -0.463021,-0.4630207 0.46302068,0.46302068 0 0 1 0.463021,-0.4630206 z"
         style="fill:#f2f2f2;stroke:#000000;stroke-width:0"
         id="path10" /><rect
         style="fill:#f2f2f2;stroke:#000000;stroke-width:0"
         id="rect10"
         width="0.55781782"
         height="4.8148351"
         x="14.892505"
         y="-10.888947"
         transform="rotate(43.946614)" /></g></g></svg>
