<?xml version="1.0" encoding="UTF-8" standalone="no"?>
<!-- Created with Inkscape (http://www.inkscape.org/) -->

<svg
   width="75"
   height="75"
   viewBox="0 0 19.84375 19.84375"
   version="1.1"
   id="svg1"
   xml:space="preserve"
   xmlns="http://www.w3.org/2000/svg"
   xmlns:svg="http://www.w3.org/2000/svg"><defs
     id="defs1" /><g
     id="layer1"><circle
       style="fill:#000000;stroke:#f2f2f2;stroke-width:0"
       id="path2"
       cx="9.921875"
       cy="9.921875"
       r="7.2760415" /><g
       id="g1"
       style="fill:none"
       transform="matrix(1.0714286,0,0,1.0714286,-2.4964952,-0.11988151)"><path
         id="rect5"
         style="stroke-width:0.569977"
         d="m 15.373716,3.3683014e-7 h 1.531735 V 7.4083336 h -1.531735 z" /><path
         id="rect6"
         style="stroke-width:0.569977"
         transform="rotate(90)"
         d="m 2.9383008,-19.84375 h 1.5317344 v 7.408333 H 2.9383008 Z" /><g
         id="g2"
         transform="matrix(1.241685,0,0,1.241685,-3.9377041,-2.8656143)"><path
           d="m 17.578869,8.8360281 q -0.498724,-0.00907 -0.970245,-0.081609 -0.471521,-0.081609 -0.761687,-0.217625 V 7.7660384 q 0.308302,0.1450833 0.78889,0.2538958 0.480589,0.1088126 0.943042,0.1178803 V 6.3061371 Q 16.681166,6.0613089 16.264051,5.6895328 15.846937,5.3177567 15.846937,4.6739493 q 0,-0.6710106 0.462453,-1.0518544 0.471521,-0.3808438 1.269479,-0.4261823 V 2.3979541 h 0.580334 v 0.7888907 q 0.480588,0.00907 0.8705,0.1088126 0.398979,0.090677 0.725417,0.2266927 L 19.510291,4.1933607 Q 19.220125,4.0754804 18.866484,3.993871 18.521911,3.9031939 18.159203,3.8759908 v 1.8226097 q 0.598468,0.1722865 0.997448,0.3717761 0.398979,0.1904219 0.598469,0.4805886 0.208557,0.281099 0.208557,0.7344845 0,0.6347397 -0.471521,1.033719 -0.471521,0.3899115 -1.332953,0.4805886 v 1.0065158 h -0.580334 z m 0,-4.9419019 q -0.489656,0.036271 -0.725417,0.2266928 -0.226692,0.1904219 -0.226692,0.4896563 0,0.3627084 0.199489,0.562198 0.208558,0.1904219 0.75262,0.3264376 z m 0.580334,4.1983497 q 0.534994,-0.054406 0.779823,-0.2448282 0.244828,-0.1994896 0.244828,-0.5077917 0,-0.344573 -0.217625,-0.5168595 Q 18.748604,6.6416423 18.159203,6.496559 Z"
           id="text1"
           style="font-size:9.06771px;font-family:Sans;-inkscape-font-specification:Sans;fill:#f2f2f2;stroke:#f2f2f2;stroke-width:0"
           aria-label="$" /></g></g></g></svg>
