<?xml version="1.0" encoding="UTF-8" standalone="no"?>
<!-- Created with Inkscape (http://www.inkscape.org/) -->

<svg
   width="75"
   height="75"
   viewBox="0 0 19.84375 19.84375"
   version="1.1"
   id="svg1"
   sodipodi:docname="broken_reinforced_square_overlay.svg"
   inkscape:version="1.4.2 (ebf0e94, 2025-05-08)"
   xmlns:inkscape="http://www.inkscape.org/namespaces/inkscape"
   xmlns:sodipodi="http://sodipodi.sourceforge.net/DTD/sodipodi-0.dtd"
   xmlns="http://www.w3.org/2000/svg"
   xmlns:svg="http://www.w3.org/2000/svg">
  <sodipodi:namedview
     id="namedview1"
     pagecolor="#ffffff"
     bordercolor="#000000"
     borderopacity="0.25"
     inkscape:showpageshadow="2"
     inkscape:pageopacity="0.0"
     inkscape:pagecheckerboard="0"
     inkscape:deskcolor="#d1d1d1"
     inkscape:zoom="1.9915967"
     inkscape:cx="28.871307"
     inkscape:cy="13.054852"
     inkscape:window-width="1366"
     inkscape:window-height="731"
     inkscape:window-x="0"
     inkscape:window-y="0"
     inkscape:window-maximized="1"
     inkscape:current-layer="svg1" />
  <defs
     id="defs1" />
  <path
     d="M 1.3683919,0.67334391 A 0.66145855,0.66145855 0 0 0 0.70693359,1.3348022 0.66145855,0.66145855 0 0 0 1.3683919,1.9962606 0.66145855,0.66145855 0 0 0 2.0298503,1.3348022 0.66145855,0.66145855 0 0 0 1.3683919,0.67334391 Z"
     style="fill:#666666;fill-rule:evenodd;stroke-width:0.0668905"
     id="path13" />
  <path
     d="M 6.2264933,1.984375 4.8467326,0 H 1.4815633 C 0.66079956,0 0,0.66079956 0,1.4815633 V 10.75955 l 1.984375,1.918746 V 2.543514 c 0,-0.3096818 0.2494572,-0.559139 0.559139,-0.559139 z M 1.3683919,0.67334391 A 0.66145855,0.66145855 0 0 1 2.0298503,1.3348022 0.66145855,0.66145855 0 0 1 1.3683919,1.9962606 0.66145855,0.66145855 0 0 1 0.70693359,1.3348022 0.66145855,0.66145855 0 0 1 1.3683919,0.67334391 Z"
     style="fill:#ececec;stroke:#ffffff;stroke-width:0"
     id="path12" />
  <path
     d="m 7.343221,17.859375 2.0525879,1.984375 h 7.9013261 l -0.158646,-0.04909 -1.32395,-1.935282 z"
     style="fill:#ececec;stroke:#ffffff;stroke-width:0"
     id="path11" />
  <path
     d="M 12.73669,0 10.629325,1.984375 H 15.97887 L 16.841866,0 Z"
     style="fill:#ececec;stroke:#ffffff;stroke-width:0"
     id="path10" />
  <path
     d="m 17.859375,11.383801 1.984375,1.227316 V 5.3025187 L 17.859375,4.2974121 Z"
     style="fill:#ececec;stroke:#ffffff;stroke-width:0"
     id="path9" />
</svg>
