<?xml version="1.0" encoding="UTF-8" standalone="no"?>
<!-- Created with Inkscape (http://www.inkscape.org/) -->

<svg
   width="19.844mm"
   height="19.844mm"
   viewBox="0 0 19.844 19.844"
   version="1.1"
   id="svg1"
   xmlns="http://www.w3.org/2000/svg"
   xmlns:svg="http://www.w3.org/2000/svg">
  <defs
     id="defs1" />
  <g
     id="layer1">
    <path
       d="m 14.478703,16.833598 -0.164848,0.526583 -3.753776,-0.01395 1.593184,2.483053 3.859196,0.01447 0.329696,-1.053682 z m 0.680578,1.336352 a 0.66145855,0.66145855 0 0 1 0.661459,0.661459 0.66145855,0.66145855 0 0 1 -0.661459,0.661458 0.66145855,0.66145855 0 0 1 -0.661458,-0.661458 0.66145855,0.66145855 0 0 1 0.661458,-0.661459 z"
       style="fill:#eeeeee;stroke:#ffffff;stroke-width:0"
       id="path8" />
    <path
       d="m 16.427938,4.9821248 -0.736906,2.4892538 1.385962,1.065568 -1.191659,3.8049354 2.210718,0.846977 1.747697,-5.5805379 z m 1.944067,2.5383464 a 0.66145855,0.66145855 0 0 1 0.661459,0.6614583 0.66145855,0.66145855 0 0 1 -0.661459,0.6614584 0.66145855,0.66145855 0 0 1 -0.661458,-0.6614584 0.66145855,0.66145855 0 0 1 0.661458,-0.6614583 z"
       style="fill:#eeeeee;stroke:#ffffff;stroke-width:0"
       id="path6" />
    <path
       d="M 2.607076,16.064136 4.9376831,15.586129 2.7672729,8.4832031 4.0989746,7.4749959 1.8598348,6.1257243 0,7.5339071 Z M 1.5818156,7.5204712 A 0.66145855,0.66145855 0 0 1 2.2432739,8.1819295 0.66145855,0.66145855 0 0 1 1.5818156,8.8433879 0.66145855,0.66145855 0 0 1 0.92035726,8.1819295 0.66145855,0.66145855 0 0 1 1.5818156,7.5204712 Z"
       style="fill:#eeeeee;stroke:#ffffff;stroke-width:0"
       id="path4" />
    <path
       d="m 15.159281,18.16995 a 0.66145855,0.66145855 0 0 0 -0.661458,0.661459 0.66145855,0.66145855 0 0 0 0.661458,0.661458 0.66145855,0.66145855 0 0 0 0.661459,-0.661458 0.66145855,0.66145855 0 0 0 -0.661459,-0.661459 z"
       style="fill:#666666;fill-rule:evenodd;stroke-width:0.0668905"
       id="path9" />
    <path
       d="M 1.5818156,7.5204712 A 0.66145855,0.66145855 0 0 0 0.92035726,8.1819295 0.66145855,0.66145855 0 0 0 1.5818156,8.8433879 0.66145855,0.66145855 0 0 0 2.2432739,8.1819295 0.66145855,0.66145855 0 0 0 1.5818156,7.5204712 Z"
       style="fill:#666666;fill-rule:evenodd;stroke-width:0.0668905"
       id="path5" />
    <path
       d="M 18.372005,7.5204712 A 0.66145855,0.66145855 0 0 0 17.710547,8.1819295 0.66145855,0.66145855 0 0 0 18.372005,8.8433879 0.66145855,0.66145855 0 0 0 19.033464,8.1819295 0.66145855,0.66145855 0 0 0 18.372005,7.5204712 Z"
       style="fill:#666666;fill-rule:evenodd;stroke-width:0.0668905"
       id="path7" />
  </g>
</svg>
