<?xml version="1.0" encoding="UTF-8" standalone="no"?>
<!-- Created with Inkscape (http://www.inkscape.org/) -->

<svg
   width="75"
   height="75"
   viewBox="0 0 19.84375 19.843751"
   version="1.1"
   id="svg5"
   xml:space="preserve"
   sodipodi:docname="broken_reinforced_triangle_overlay.svg"
   inkscape:version="1.4.2 (ebf0e94, 2025-05-08)"
   xmlns:inkscape="http://www.inkscape.org/namespaces/inkscape"
   xmlns:sodipodi="http://sodipodi.sourceforge.net/DTD/sodipodi-0.dtd"
   xmlns="http://www.w3.org/2000/svg"
   xmlns:svg="http://www.w3.org/2000/svg"><sodipodi:namedview
     id="namedview1"
     pagecolor="#ffffff"
     bordercolor="#000000"
     borderopacity="0.25"
     inkscape:showpageshadow="2"
     inkscape:pageopacity="0.0"
     inkscape:pagecheckerboard="0"
     inkscape:deskcolor="#d1d1d1"
     inkscape:zoom="3.5757647"
     inkscape:cx="44.605844"
     inkscape:cy="17.059288"
     inkscape:window-width="1366"
     inkscape:window-height="731"
     inkscape:window-x="0"
     inkscape:window-y="0"
     inkscape:window-maximized="1"
     inkscape:current-layer="svg5" /><defs
     id="defs2" /><path
     d="m 16.158187,11.115601 -2.254126,0.226859 0.999422,1.784904 c 0.882387,0.670739 1.925204,1.464238 2.827218,2.152841 l 0.458887,-0.553455 z"
     style="fill:#ececec;stroke-width:0"
     id="path7" /><path
     d="m 15.207341,17.671273 -1.337386,-2.101164 -3.514514,0.0047 1.249536,2.099097 z"
     style="fill:#ececec;stroke-width:0"
     id="path6" /><path
     d="M 9.9058556,0 7.5370078,4.2286826 8.003646,7.7096071 9.9415123,4.2674399 12.724288,9.236129 C 13.2271,8.7850102 13.764971,8.3046654 14.307137,7.8243288 Z m 0.01602,2.2055502 A 0.66145855,0.66145855 0 0 1 10.583334,2.8670085 0.66145855,0.66145855 0 0 1 9.9218752,3.5284669 0.66145855,0.66145855 0 0 1 9.2604169,2.8670085 0.66145855,0.66145855 0 0 1 9.9218752,2.2055502 Z"
     style="fill:#ececec;stroke-width:0"
     id="path8" /><path
     d="M 9.9218752,2.2055502 A 0.66145855,0.66145855 0 0 0 9.2604169,2.8670085 0.66145855,0.66145855 0 0 0 9.9218752,3.5284669 0.66145855,0.66145855 0 0 0 10.583334,2.8670085 0.66145855,0.66145855 0 0 0 9.9218752,2.2055502 Z"
     style="fill:#666666;fill-rule:evenodd;stroke-width:0.0668905"
     id="path9" /></svg>
