<?xml version="1.0" encoding="UTF-8" standalone="no"?>
<!-- Created with Inkscape (http://www.inkscape.org/) -->

<svg
   width="70"
   height="70"
   viewBox="0 0 18.520834 18.520834"
   version="1.1"
   id="svg1"
   sodipodi:docname="broken_reinforced_pentagon_overlay.svg"
   inkscape:version="1.4.2 (ebf0e94, 2025-05-08)"
   xmlns:inkscape="http://www.inkscape.org/namespaces/inkscape"
   xmlns:sodipodi="http://sodipodi.sourceforge.net/DTD/sodipodi-0.dtd"
   xmlns="http://www.w3.org/2000/svg"
   xmlns:svg="http://www.w3.org/2000/svg">
  <sodipodi:namedview
     id="namedview1"
     pagecolor="#ffffff"
     bordercolor="#000000"
     borderopacity="0.25"
     inkscape:showpageshadow="2"
     inkscape:pageopacity="0.0"
     inkscape:pagecheckerboard="0"
     inkscape:deskcolor="#d1d1d1"
     inkscape:document-units="mm"
     inkscape:zoom="4.2763104"
     inkscape:cx="10.640013"
     inkscape:cy="39.753896"
     inkscape:window-width="1366"
     inkscape:window-height="731"
     inkscape:window-x="0"
     inkscape:window-y="0"
     inkscape:window-maximized="1"
     inkscape:current-layer="svg1" />
  <defs
     id="defs1" />
  <g
     id="layer1"
     transform="matrix(0.93333333,0,0,0.93333333,0.06187187,-0.10096128)">
    <path
       d="m 14.478703,16.833598 -0.164848,0.526583 -3.753776,-0.01395 1.593184,2.483053 3.859196,0.01447 0.329696,-1.053682 z m 0.680578,1.336352 a 0.66145855,0.66145855 0 0 1 0.661459,0.661459 0.66145855,0.66145855 0 0 1 -0.661459,0.661458 0.66145855,0.66145855 0 0 1 -0.661458,-0.661458 0.66145855,0.66145855 0 0 1 0.661458,-0.661459 z"
       style="fill:#eeeeee;stroke:#ffffff;stroke-width:0"
       id="path8" />
    <path
       d="m 16.427938,4.9821248 -0.736906,2.4892538 1.385962,1.065568 -1.191659,3.8049354 2.210718,0.846977 1.747697,-5.5805379 z m 1.944067,2.5383464 a 0.66145855,0.66145855 0 0 1 0.661459,0.6614583 0.66145855,0.66145855 0 0 1 -0.661459,0.6614584 0.66145855,0.66145855 0 0 1 -0.661458,-0.6614584 0.66145855,0.66145855 0 0 1 0.661458,-0.6614583 z"
       style="fill:#eeeeee;stroke:#ffffff;stroke-width:0"
       id="path6" />
    <path
       d="M 2.607076,16.064136 4.9376831,15.586129 2.7672729,8.4832031 4.0989746,7.4749959 1.8598348,6.1257243 0,7.5339071 Z M 1.5818156,7.5204712 A 0.66145855,0.66145855 0 0 1 2.2432739,8.1819295 0.66145855,0.66145855 0 0 1 1.5818156,8.8433879 0.66145855,0.66145855 0 0 1 0.92035726,8.1819295 0.66145855,0.66145855 0 0 1 1.5818156,7.5204712 Z"
       style="fill:#eeeeee;stroke:#ffffff;stroke-width:0"
       id="path4" />
    <path
       d="m 15.159281,18.16995 a 0.66145855,0.66145855 0 0 0 -0.661458,0.661459 0.66145855,0.66145855 0 0 0 0.661458,0.661458 0.66145855,0.66145855 0 0 0 0.661459,-0.661458 0.66145855,0.66145855 0 0 0 -0.661459,-0.661459 z"
       style="fill:#666666;fill-rule:evenodd;stroke-width:0.0668905"
       id="path9" />
    <path
       d="M 1.5818156,7.5204712 A 0.66145855,0.66145855 0 0 0 0.92035726,8.1819295 0.66145855,0.66145855 0 0 0 1.5818156,8.8433879 0.66145855,0.66145855 0 0 0 2.2432739,8.1819295 0.66145855,0.66145855 0 0 0 1.5818156,7.5204712 Z"
       style="fill:#666666;fill-rule:evenodd;stroke-width:0.0668905"
       id="path5" />
    <path
       d="M 18.372005,7.5204712 A 0.66145855,0.66145855 0 0 0 17.710547,8.1819295 0.66145855,0.66145855 0 0 0 18.372005,8.8433879 0.66145855,0.66145855 0 0 0 19.033464,8.1819295 0.66145855,0.66145855 0 0 0 18.372005,7.5204712 Z"
       style="fill:#666666;fill-rule:evenodd;stroke-width:0.0668905"
       id="path7" />
  </g>
</svg>
