<?xml version="1.0" encoding="UTF-8" standalone="no"?>
<!-- Created with Inkscape (http://www.inkscape.org/) -->

<svg
   width="70"
   height="70"
   viewBox="0 0 18.520833 18.520833"
   version="1.1"
   id="svg1"
   xmlns="http://www.w3.org/2000/svg"
   xmlns:svg="http://www.w3.org/2000/svg">
  <defs
     id="defs1" />
  <g
     id="layer1">
    <path
       d="M 0.42426351,12.031307 2.8432373,12.689148 A 7.2760415,7.2760415 0 0 1 1.984375,9.2604167 7.2760415,7.2760415 0 0 1 2.3182048,7.0817383 L 0.73173828,5.6523682 A 9.260417,9.260417 0 0 0 0,9.2604167 9.260417,9.260417 0 0 0 0.42426351,12.031307 Z"
       style="fill:#ececec;stroke:#ffffff;stroke-width:0"
       id="path11" />
    <path
       d="M 12.566675,0.61029867 11.767757,2.4303426 A 7.2760415,7.2760415 0 0 1 15.89412,6.2709351 L 16.273942,5.6880249 A 0.66145855,0.66145855 0 0 1 15.822807,5.3681478 0.66145855,0.66145855 0 0 1 16.064653,4.4648437 0.66145855,0.66145855 0 0 1 16.941085,4.663798 L 17.128153,4.3764771 A 9.260417,9.260417 0 0 0 12.566675,0.61029867 Z"
       style="fill:#ececec;stroke:#ffffff;stroke-width:0"
       id="path9" />
    <path
       d="m 18.515666,8.9524251 -1.979208,0.359668 a 7.2760415,7.2760415 0 0 1 -1.458309,4.3185999 l 0.629419,2.27738 a 9.260417,9.260417 0 0 0 2.813265,-6.6476563 9.260417,9.260417 0 0 0 -0.0052,-0.3079916 z m -1.951819,3.7816809 a 0.66145855,0.66145855 0 0 1 0.330729,0.08837 0.66145855,0.66145855 0 0 1 0.241846,0.903821 0.66145855,0.66145855 0 0 1 -0.903304,0.241846 0.66145855,0.66145855 0 0 1 -0.242363,-0.903304 0.66145855,0.66145855 0 0 1 0.573092,-0.33073 z"
       style="fill:#ececec;stroke:#ffffff;stroke-width:0"
       id="path8" />
    <path
       d="m 13.770736,17.348295 0.238228,-2.575037 a 7.2760415,7.2760415 0 0 1 -4.7485473,1.7632 7.2760415,7.2760415 0 0 1 -1.4562419,-0.147277 l -1.6872355,1.581815 a 9.260417,9.260417 0 0 0 3.1434774,0.549837 9.260417,9.260417 0 0 0 4.5103193,-1.172538 z M 9.3151937,16.918864 A 0.66145855,0.66145855 0 0 1 9.976652,17.580322 0.66145855,0.66145855 0 0 1 9.3151937,18.241781 0.66145855,0.66145855 0 0 1 8.6537354,17.580322 0.66145855,0.66145855 0 0 1 9.3151937,16.918864 Z"
       style="fill:#ececec;stroke:#ffffff;stroke-width:0"
       id="path5" />
    <path
       d="M 9.3151937,16.918864 A 0.66145855,0.66145855 0 0 0 8.6537354,17.580322 0.66145855,0.66145855 0 0 0 9.3151937,18.241781 0.66145855,0.66145855 0 0 0 9.976652,17.580322 0.66145855,0.66145855 0 0 0 9.3151937,16.918864 Z"
       style="fill:#666666;fill-rule:evenodd;stroke-width:0.0668905"
       id="path6" />
    <path
       d="m 16.563847,12.734106 a 0.66145855,0.66145855 0 0 0 -0.573092,0.33073 0.66145855,0.66145855 0 0 0 0.242363,0.903304 0.66145855,0.66145855 0 0 0 0.903304,-0.241846 0.66145855,0.66145855 0 0 0 -0.241846,-0.903821 0.66145855,0.66145855 0 0 0 -0.330729,-0.08837 z"
       style="fill:#666666;fill-rule:evenodd;stroke-width:0.0668905"
       id="path7" />
    <path
       d="M 16.273942,5.6880249 16.941085,4.663798 a 0.66145855,0.66145855 0 0 0 -0.876432,-0.1989543 0.66145855,0.66145855 0 0 0 -0.241846,0.9033041 0.66145855,0.66145855 0 0 0 0.451135,0.3198771 z"
       style="fill:#666666;fill-rule:evenodd;stroke-width:0.0668905"
       id="path10" />
  </g>
</svg>
