<?xml version="1.0" encoding="UTF-8" standalone="no"?>
<!-- Created with Inkscape (http://www.inkscape.org/) -->

<svg
   width="19.844mm"
   height="19.844mm"
   viewBox="0 0 19.844 19.844"
   version="1.1"
   id="svg1"
   sodipodi:docname="pentagon.svg"
   inkscape:version="1.4.2 (ebf0e94, 2025-05-08)"
   xmlns:inkscape="http://www.inkscape.org/namespaces/inkscape"
   xmlns:sodipodi="http://sodipodi.sourceforge.net/DTD/sodipodi-0.dtd"
   xmlns="http://www.w3.org/2000/svg"
   xmlns:svg="http://www.w3.org/2000/svg">
  <sodipodi:namedview
     id="namedview1"
     pagecolor="#ffffff"
     bordercolor="#000000"
     borderopacity="0.25"
     inkscape:showpageshadow="2"
     inkscape:pageopacity="0.0"
     inkscape:pagecheckerboard="0"
     inkscape:deskcolor="#d1d1d1"
     inkscape:document-units="mm"
     inkscape:zoom="3.4746509"
     inkscape:cx="-15.972828"
     inkscape:cy="52.95496"
     inkscape:window-width="1366"
     inkscape:window-height="731"
     inkscape:window-x="0"
     inkscape:window-y="0"
     inkscape:window-maximized="1"
     inkscape:current-layer="layer1">
    <inkscape:page
       x="0"
       y="0"
       width="19.844"
       height="19.844"
       id="page2"
       margin="0"
       bleed="0" />
  </sodipodi:namedview>
  <defs
     id="defs1" />
  <g
     inkscape:label="Layer 1"
     inkscape:groupmode="layer"
     id="layer1">
    <path
       d="M 9.9477132,0 0,7.5339071 3.7480916,19.797758 16.012459,19.84375 19.84375,7.6083211 Z m -0.00413,1.3534058 A 0.66145855,0.66145855 0 0 1 10.605037,2.0148641 0.66145855,0.66145855 0 0 1 9.9435791,2.6763224 0.66145855,0.66145855 0 0 1 9.2821208,2.0148641 0.66145855,0.66145855 0 0 1 9.9435791,1.3534058 Z m -0.0031,1.697054 L 17.076994,8.5369466 14.313855,17.360181 5.4699504,17.327108 2.7672729,8.4832031 Z M 1.5818156,7.5204712 A 0.66145855,0.66145855 0 0 1 2.2432739,8.1819295 0.66145855,0.66145855 0 0 1 1.5818156,8.8433879 0.66145855,0.66145855 0 0 1 0.92035726,8.1819295 0.66145855,0.66145855 0 0 1 1.5818156,7.5204712 Z m 16.7901894,0 A 0.66145855,0.66145855 0 0 1 19.033464,8.1819295 0.66145855,0.66145855 0 0 1 18.372005,8.8433879 0.66145855,0.66145855 0 0 1 17.710547,8.1819295 0.66145855,0.66145855 0 0 1 18.372005,7.5204712 Z M 4.7945394,18.16995 A 0.66145855,0.66145855 0 0 1 5.4559977,18.831409 0.66145855,0.66145855 0 0 1 4.7945394,19.492867 0.66145855,0.66145855 0 0 1 4.1330811,18.831409 0.66145855,0.66145855 0 0 1 4.7945394,18.16995 Z m 10.3647416,0 a 0.66145855,0.66145855 0 0 1 0.661459,0.661459 0.66145855,0.66145855 0 0 1 -0.661459,0.661458 0.66145855,0.66145855 0 0 1 -0.661458,-0.661458 0.66145855,0.66145855 0 0 1 0.661458,-0.661459 z"
       style="fill:#eeeeee;stroke:#ffffff;stroke-width:0"
       id="path11" />
    <path
       d="m 15.159281,18.16995 a 0.66145855,0.66145855 0 0 0 -0.661458,0.661459 0.66145855,0.66145855 0 0 0 0.661458,0.661458 0.66145855,0.66145855 0 0 0 0.661459,-0.661458 0.66145855,0.66145855 0 0 0 -0.661459,-0.661459 z"
       style="fill:#666666;fill-rule:evenodd;stroke-width:0.0668905"
       id="path15" />
    <path
       d="M 4.7945394,18.16995 A 0.66145855,0.66145855 0 0 0 4.1330811,18.831409 0.66145855,0.66145855 0 0 0 4.7945394,19.492867 0.66145855,0.66145855 0 0 0 5.4559977,18.831409 0.66145855,0.66145855 0 0 0 4.7945394,18.16995 Z"
       style="fill:#666666;fill-rule:evenodd;stroke-width:0.0668905"
       id="path12" />
    <path
       d="M 1.5818156,7.5204712 A 0.66145855,0.66145855 0 0 0 0.92035726,8.1819295 0.66145855,0.66145855 0 0 0 1.5818156,8.8433879 0.66145855,0.66145855 0 0 0 2.2432739,8.1819295 0.66145855,0.66145855 0 0 0 1.5818156,7.5204712 Z"
       style="fill:#666666;fill-rule:evenodd;stroke-width:0.0668905"
       id="path10" />
    <path
       d="M 9.9435791,1.3534058 A 0.66145855,0.66145855 0 0 0 9.2821208,2.0148641 0.66145855,0.66145855 0 0 0 9.9435791,2.6763224 0.66145855,0.66145855 0 0 0 10.605037,2.0148641 0.66145855,0.66145855 0 0 0 9.9435791,1.3534058 Z"
       style="fill:#666666;fill-rule:evenodd;stroke-width:0.0668905"
       id="path13" />
    <path
       d="M 18.372005,7.5204712 A 0.66145855,0.66145855 0 0 0 17.710547,8.1819295 0.66145855,0.66145855 0 0 0 18.372005,8.8433879 0.66145855,0.66145855 0 0 0 19.033464,8.1819295 0.66145855,0.66145855 0 0 0 18.372005,7.5204712 Z"
       style="fill:#666666;fill-rule:evenodd;stroke-width:0.0668905"
       id="path14" />
  </g>
</svg>
