<?xml version="1.0" encoding="UTF-8" standalone="no"?>
<!-- Created with Inkscape (http://www.inkscape.org/) -->

<svg
   width="18.520834mm"
   height="18.520834mm"
   viewBox="0 0 18.520834 18.520834"
   version="1.1"
   id="svg1"
   sodipodi:docname="reinforced_pentagon_overlay.svg"
   inkscape:version="1.4.2 (ebf0e94, 2025-05-08)"
   xmlns:inkscape="http://www.inkscape.org/namespaces/inkscape"
   xmlns:sodipodi="http://sodipodi.sourceforge.net/DTD/sodipodi-0.dtd"
   xmlns="http://www.w3.org/2000/svg"
   xmlns:svg="http://www.w3.org/2000/svg">
  <sodipodi:namedview
     id="namedview1"
     pagecolor="#ffffff"
     bordercolor="#000000"
     borderopacity="0.25"
     inkscape:showpageshadow="2"
     inkscape:pageopacity="0.0"
     inkscape:pagecheckerboard="0"
     inkscape:deskcolor="#d1d1d1"
     inkscape:document-units="mm"
     inkscape:zoom="2.0680469"
     inkscape:cx="6.5278984"
     inkscape:cy="51.256091"
     inkscape:window-width="1366"
     inkscape:window-height="731"
     inkscape:window-x="0"
     inkscape:window-y="0"
     inkscape:window-maximized="1"
     inkscape:current-layer="layer1">
    <inkscape:page
       x="0"
       y="0"
       width="18.520834"
       height="18.520834"
       id="page2"
       margin="0"
       bleed="0" />
  </sodipodi:namedview>
  <defs
     id="defs1" />
  <g
     inkscape:label="Layer 1"
     inkscape:groupmode="layer"
     id="layer1">
    <g
       id="g1"
       transform="scale(0.67348485)">
      <path
         d="M 13.785807,0 0,10.44069 5.1942057,27.436263 22.190494,27.5 27.5,10.543815 Z m -0.0057,1.875586 a 0.91666697,0.91666697 0 0 1 0.91666,0.9166666 0.91666697,0.91666697 0 0 1 -0.916666,0.9166666 0.91666697,0.91666697 0 0 1 -0.916666,-0.9166666 0.91666697,0.91666697 0 0 1 0.916666,-0.9166666 z m -0.0043,2.3518229 9.889967,7.6033201 L 19.836523,24.058204 7.5804037,24.01237 3.8349609,11.75625 Z M 2.1921224,10.42207 A 0.91666697,0.91666697 0 0 1 3.108789,11.338737 0.91666697,0.91666697 0 0 1 2.1921224,12.255404 0.91666697,0.91666697 0 0 1 1.2754557,11.338737 0.91666697,0.91666697 0 0 1 2.1921224,10.42207 Z m 23.2682936,0 a 0.91666697,0.91666697 0 0 1 0.916668,0.916667 0.91666697,0.91666697 0 0 1 -0.916668,0.916667 0.91666697,0.91666697 0 0 1 -0.916666,-0.916667 0.91666697,0.91666697 0 0 1 0.916666,-0.916667 z M 6.6444011,25.180403 a 0.91666697,0.91666697 0 0 1 0.9166666,0.916668 0.91666697,0.91666697 0 0 1 -0.9166666,0.916666 0.91666697,0.91666697 0 0 1 -0.9166667,-0.916666 0.91666697,0.91666697 0 0 1 0.9166667,-0.916668 z m 14.3637359,0 a 0.91666697,0.91666697 0 0 1 0.916668,0.916668 0.91666697,0.91666697 0 0 1 -0.916668,0.916666 0.91666697,0.91666697 0 0 1 -0.916666,-0.916666 0.91666697,0.91666697 0 0 1 0.916666,-0.916668 z"
         style="fill:#eeeeee;stroke:#ffffff;stroke-width:0"
         id="path11" />
      <path
         d="m 21.008137,25.180403 a 0.91666697,0.91666697 0 0 0 -0.916666,0.916668 0.91666697,0.91666697 0 0 0 0.916666,0.916666 0.91666697,0.91666697 0 0 0 0.916668,-0.916666 0.91666697,0.91666697 0 0 0 -0.916668,-0.916668 z"
         style="fill:#666666;fill-rule:evenodd;stroke-width:0.0926986"
         id="path15" />
      <path
         d="M 6.6444011,25.180403 A 0.91666697,0.91666697 0 0 0 5.7277344,26.097071 0.91666697,0.91666697 0 0 0 6.6444011,27.013737 0.91666697,0.91666697 0 0 0 7.5610677,26.097071 0.91666697,0.91666697 0 0 0 6.6444011,25.180403 Z"
         style="fill:#666666;fill-rule:evenodd;stroke-width:0.0926986"
         id="path12" />
      <path
         d="M 2.1921224,10.42207 A 0.91666697,0.91666697 0 0 0 1.2754557,11.338737 0.91666697,0.91666697 0 0 0 2.1921224,12.255404 0.91666697,0.91666697 0 0 0 3.108789,11.338737 0.91666697,0.91666697 0 0 0 2.1921224,10.42207 Z"
         style="fill:#666666;fill-rule:evenodd;stroke-width:0.0926986"
         id="path10" />
      <path
         d="M 13.780078,1.875586 A 0.91666697,0.91666697 0 0 0 12.863412,2.7922526 0.91666697,0.91666697 0 0 0 13.780078,3.7089192 0.91666697,0.91666697 0 0 0 14.696744,2.7922526 0.91666697,0.91666697 0 0 0 13.780078,1.875586 Z"
         style="fill:#666666;fill-rule:evenodd;stroke-width:0.0926986"
         id="path13" />
      <path
         d="m 25.460416,10.42207 a 0.91666697,0.91666697 0 0 0 -0.916666,0.916667 0.91666697,0.91666697 0 0 0 0.916666,0.916667 0.91666697,0.91666697 0 0 0 0.916668,-0.916667 0.91666697,0.91666697 0 0 0 -0.916668,-0.916667 z"
         style="fill:#666666;fill-rule:evenodd;stroke-width:0.0926986"
         id="path14" />
    </g>
  </g>
</svg>
