<?xml version="1.0" encoding="UTF-8" standalone="no"?>
<!-- Created with Inkscape (http://www.inkscape.org/) -->

<svg
   width="75"
   height="75"
   viewBox="0 0 19.84375 19.84375"
   version="1.1"
   id="svg1"
   xml:space="preserve"
   sodipodi:docname="lucky_chance_icon.svg"
   inkscape:version="1.4.2 (ebf0e94, 2025-05-08)"
   xmlns:inkscape="http://www.inkscape.org/namespaces/inkscape"
   xmlns:sodipodi="http://sodipodi.sourceforge.net/DTD/sodipodi-0.dtd"
   xmlns="http://www.w3.org/2000/svg"
   xmlns:svg="http://www.w3.org/2000/svg"><sodipodi:namedview
     id="namedview1"
     pagecolor="#ffffff"
     bordercolor="#000000"
     borderopacity="0.25"
     inkscape:showpageshadow="2"
     inkscape:pageopacity="0.0"
     inkscape:pagecheckerboard="0"
     inkscape:deskcolor="#d1d1d1"
     inkscape:zoom="4.1315976"
     inkscape:cx="19.483988"
     inkscape:cy="39.452051"
     inkscape:window-width="1366"
     inkscape:window-height="731"
     inkscape:window-x="0"
     inkscape:window-y="0"
     inkscape:window-maximized="1"
     inkscape:current-layer="layer1" /><defs
     id="defs1" /><g
     id="layer1"
     transform="translate(-2.3962806)"><g
       id="g3"
       transform="translate(2.3962806)"><path
         style="fill:#000000;stroke:#000000;stroke-width:0"
         id="path1"
         d="M 6.6817597,9.882398 9.6622979,4.2363787 12.521425,9.868357 Z" /><g
         id="g1"
         transform="matrix(1.3863576,0,0,1.3863576,-4.6817531,-2.3224551)"><path
           style="fill:#000000;stroke:#000000;stroke-width:0"
           id="path17"
           d="m 14.466252,8.6091842 -0.04709,-1.2780343 -0.729151,-1.0506794 1.278034,-0.047087 1.05068,-0.7291511 0.04709,1.2780343 0.729151,1.0506794 -1.278035,0.047087 z"
           transform="matrix(0.77954695,0,0,0.77954695,3.3351853,1.2359936)" /><path
           style="fill:#000000;stroke:#000000;stroke-width:0"
           id="path19"
           d="M 3.7400553,10.443928 2.8846891,9.9635347 1.9053112,10.020525 2.3857044,9.1651592 2.3287137,8.1857813 3.1840799,8.6661746 4.1634578,8.6091838 3.6830645,9.46455 Z"
           transform="matrix(0.77954695,0,0,0.77954695,10.632387,-0.80818157)" /><path
           style="fill:#000000;stroke:#000000;stroke-width:0"
           id="path21"
           d="M 10.091092,18.488575 9.0867651,18.385967 8.1857811,18.841411 8.2883897,17.837084 7.8329457,16.9361 8.8372728,17.038708 9.7382569,16.583264 9.6356483,17.587591 Z"
           transform="matrix(0.77954695,0,0,0.77954695,7.1567239,-9.0017552)" /></g><g
         id="g2"
         transform="matrix(1.3606605,0,0,1.3606605,-2.8919605,-7.1988038)"><path
           style="fill:#000000;stroke:#000000;stroke-width:0"
           id="path22"
           d="m 14.466252,8.6091842 -0.04709,-1.2780343 -0.729151,-1.0506794 1.278034,-0.047087 1.05068,-0.7291511 0.04709,1.2780343 0.729151,1.0506794 -1.278035,0.047087 z"
           transform="matrix(0.77954695,0,0,0.77954695,-0.763969,13.248794)" /><path
           style="fill:#000000;stroke:#000000;stroke-width:0"
           id="path23"
           d="M 3.7400553,10.443928 2.8846891,9.9635347 1.9053112,10.020525 2.3857044,9.1651592 2.3287137,8.1857813 3.1840799,8.6661746 4.1634578,8.6091838 3.6830645,9.46455 Z"
           transform="matrix(0.77954695,0,0,0.77954695,6.5332327,11.204618)" /></g><g
         id="g29"
         transform="matrix(0.67805977,1.0451907,-1.0451907,0.67805977,1.0084476,-13.221443)"
         style="fill:#000000"><path
           style="fill:#000000;stroke:#000000;stroke-width:0"
           id="path27"
           d="m 14.466252,8.6091842 -0.04709,-1.2780343 -0.729151,-1.0506794 1.278034,-0.047087 1.05068,-0.7291511 0.04709,1.2780343 0.729151,1.0506794 -1.278035,0.047087 z"
           transform="matrix(0.77954695,0,0,0.77954695,3.3351853,1.2359936)" /><path
           style="fill:#000000;stroke:#000000;stroke-width:0"
           id="path28"
           d="M 3.7400553,10.443928 2.8846891,9.9635347 1.9053112,10.020525 2.3857044,9.1651592 2.3287137,8.1857813 3.1840799,8.6661746 4.1634578,8.6091838 3.6830645,9.46455 Z"
           transform="matrix(0.77954695,0,0,0.77954695,10.632387,-0.80818157)" /><path
           style="fill:#000000;stroke:#000000;stroke-width:0"
           id="path29"
           d="M 10.091092,18.488575 9.0867651,18.385967 8.1857811,18.841411 8.2883897,17.837084 7.8329457,16.9361 8.8372728,17.038708 9.7382569,16.583264 9.6356483,17.587591 Z"
           transform="matrix(0.77954695,0,0,0.77954695,7.1567239,-9.0017552)" /></g><circle
         style="fill:#000000;stroke:#f2f2f2;stroke-width:0"
         id="path2"
         cx="14.501724"
         cy="13.558676"
         r="2.9104166" /><rect
         style="fill:#000000;stroke:#f2f2f2;stroke-width:0"
         id="rect2"
         width="5.2916665"
         height="5.2916665"
         x="4.2791471"
         y="11.209203"
         rx="0.60665578" /></g><g
       id="g12"
       transform="matrix(1.9194761,0,0,1.8204432,-13.815668,-4.2726477)"
       style="fill:#f2f2f2"><path
         d="m 15.850617,2.3470371 a 0.92604139,0.92604139 0 0 0 -0.926042,0.9260413 0.92604139,0.92604139 0 0 0 0.926042,0.9260414 0.92604139,0.92604139 0 0 0 0.926041,-0.9260414 0.92604139,0.92604139 0 0 0 -0.926041,-0.9260413 z m 0,0.4630207 a 0.46302068,0.46302068 0 0 1 0.46302,0.4630206 0.46302068,0.46302068 0 0 1 -0.46302,0.4630207 0.46302068,0.46302068 0 0 1 -0.463021,-0.4630207 0.46302068,0.46302068 0 0 1 0.463021,-0.4630206 z"
         style="fill:#f2f2f2;stroke:#000000;stroke-width:0"
         id="path9" /><path
         d="m 17.858094,4.5644761 a 0.92604139,0.92604139 0 0 0 -0.926042,0.9260413 0.92604139,0.92604139 0 0 0 0.926042,0.9260414 0.92604139,0.92604139 0 0 0 0.926041,-0.9260414 0.92604139,0.92604139 0 0 0 -0.926041,-0.9260413 z m 0,0.4630207 a 0.46302068,0.46302068 0 0 1 0.46302,0.4630206 0.46302068,0.46302068 0 0 1 -0.46302,0.4630207 0.46302068,0.46302068 0 0 1 -0.463021,-0.4630207 0.46302068,0.46302068 0 0 1 0.463021,-0.4630206 z"
         style="fill:#f2f2f2;stroke:#000000;stroke-width:0"
         id="path10" /><rect
         style="fill:#f2f2f2;stroke:#000000;stroke-width:0"
         id="rect10"
         width="0.55781782"
         height="4.8148351"
         x="14.892505"
         y="-10.888947"
         transform="rotate(43.946614)" /></g></g></svg>
