<?xml version="1.0" encoding="UTF-8" standalone="no"?>
<!-- Created with Inkscape (http://www.inkscape.org/) -->

<svg
   width="75"
   height="75"
   viewBox="0 0 19.843751 19.84375"
   version="1.1"
   id="svg1"
   xml:space="preserve"
   sodipodi:docname="spawn_rate_decrease_icon.svg"
   inkscape:version="1.4.2 (ebf0e94, 2025-05-08)"
   xmlns:inkscape="http://www.inkscape.org/namespaces/inkscape"
   xmlns:sodipodi="http://sodipodi.sourceforge.net/DTD/sodipodi-0.dtd"
   xmlns="http://www.w3.org/2000/svg"
   xmlns:svg="http://www.w3.org/2000/svg"><sodipodi:namedview
     id="namedview1"
     pagecolor="#ffffff"
     bordercolor="#000000"
     borderopacity="0.25"
     inkscape:showpageshadow="2"
     inkscape:pageopacity="0.0"
     inkscape:pagecheckerboard="0"
     inkscape:deskcolor="#d1d1d1"
     inkscape:document-units="px"
     showgrid="false"
     inkscape:zoom="4.0938633"
     inkscape:cx="34.075393"
     inkscape:cy="12.213402"
     inkscape:window-width="1366"
     inkscape:window-height="731"
     inkscape:window-x="0"
     inkscape:window-y="0"
     inkscape:window-maximized="1"
     inkscape:current-layer="layer1" /><defs
     id="defs1" /><g
     id="layer1"
     transform="scale(0.26458333)"><g
       id="g3"
       transform="matrix(3.7795277,0,0,3.7795277,-4.641093,-24.426806)"><g
         id="layer1-5" /><g
         id="g5"
         transform="matrix(0.91666666,0,0,0.91666666,3.8737892,9.1087589)"><path
           id="rect1"
           style="fill:#000000;stroke-width:0.264583"
           d="M 0,0 V 15.875 H 15.875 V 0 Z M 0.9921875,0.9921875 H 14.882812 V 14.882812 H 0.9921875 Z" /><path
           sodipodi:type="star"
           style="fill:#000000;stroke-width:0.264583"
           id="path3"
           inkscape:flatsided="true"
           sodipodi:sides="3"
           sodipodi:cx="4.1805568"
           sodipodi:cy="3.9192717"
           sodipodi:r1="2.1979005"
           sodipodi:r2="1.0989503"
           sodipodi:arg1="0.52359878"
           sodipodi:arg2="1.5707963"
           inkscape:rounded="0"
           inkscape:randomized="0"
           d="m 6.0839945,5.018222 -3.8068754,0 1.9034377,-3.2968508 z"
           inkscape:transform-center-y="-0.88194471"
           transform="matrix(1.3900289,0,0,1.605067,-0.88814216,-1.041545)" /><circle
           style="fill:#000000;stroke-width:0.394005"
           id="path4"
           cx="12.151703"
           cy="5.2015281"
           r="2.6458333" /><rect
           style="fill:#000000;stroke-width:0.41863"
           id="rect4"
           width="5.2916665"
           height="5.2916665"
           x="4.5746365"
           y="8.7694607" /></g></g><g
       id="g1"
       transform="matrix(0.28000002,0,0,0.28000002,50.498319,0)"
       style="fill:#f2f2f2;fill-opacity:1"><path
         d="m 43,26 c -1.656,0 -3,1.343 -3,3 v 28 c 0,1.657 1.344,3 3,3 1.656,0 3,-1.343 3,-3 V 29 c 0,-1.657 -1.344,-3 -3,-3 z"
         id="path1"
         style="fill:#f2f2f2;fill-opacity:1" /><path
         d="m 87.506,23.807 c 0,0 -1.414,-4.242 -4.243,-7.07 -2.829,-2.828 -7.07,-4.243 -7.07,-4.243 l -8.988,8.988 C 62.408,18.202 56.916,15.876 51,14.758 V 2 C 51,2 47,0 43,0 39,0 35,2 35,2 V 14.758 C 15.102,18.52 0,36.024 0,57 0,80.71 19.29,100 43,100 66.71,100 86,80.71 86,57 86,48.029 83.235,39.695 78.518,32.795 Z M 43,94 C 22.598,94 6,77.402 6,57 6,36.598 22.598,20 43,20 63.402,20 80,36.598 80,57 80,77.402 63.402,94 43,94 Z"
         id="path2"
         style="fill:#f2f2f2;fill-opacity:1" /></g></g></svg>
