<?xml version="1.0" encoding="UTF-8" standalone="no"?>
<!-- Created with Inkscape (http://www.inkscape.org/) -->

<svg
   width="75"
   height="75"
   viewBox="0 0 19.843751 19.84375"
   version="1.1"
   id="svg1"
   xml:space="preserve"
   sodipodi:docname="spawn_rate_decrease_icon.svg"
   inkscape:version="1.4.2 (ebf0e94, 2025-05-08)"
   inkscape:export-filename="square_regeneration_icon.png"
   inkscape:export-xdpi="96"
   inkscape:export-ydpi="96"
   xmlns:inkscape="http://www.inkscape.org/namespaces/inkscape"
   xmlns:sodipodi="http://sodipodi.sourceforge.net/DTD/sodipodi-0.dtd"
   xmlns="http://www.w3.org/2000/svg"
   xmlns:svg="http://www.w3.org/2000/svg"><sodipodi:namedview
     id="namedview1"
     pagecolor="#ffffff"
     bordercolor="#000000"
     borderopacity="0.25"
     inkscape:showpageshadow="2"
     inkscape:pageopacity="0.0"
     inkscape:pagecheckerboard="0"
     inkscape:deskcolor="#d1d1d1"
     inkscape:document-units="px"
     showgrid="false"
     inkscape:zoom="4.0938633"
     inkscape:cx="34.319661"
     inkscape:cy="45.922393"
     inkscape:window-width="1366"
     inkscape:window-height="731"
     inkscape:window-x="0"
     inkscape:window-y="0"
     inkscape:window-maximized="1"
     inkscape:current-layer="layer1-5"><inkscape:page
       x="0"
       y="0"
       width="19.843752"
       height="19.84375"
       id="page2"
       margin="0"
       bleed="0" /></sodipodi:namedview><defs
     id="defs1" /><g
     id="layer1"
     transform="scale(0.26458333)"><g
       inkscape:label="Layer 1"
       id="layer1-5"
       transform="matrix(3.7795277,0,0,3.7795277,-8.028403,13.726548)"><g
         id="g1-5"
         style="fill:none"
         transform="matrix(1.0714286,0,0,1.0714286,-2.4964952,-0.11988151)"
         inkscape:transform-center-x="1.0790839"
         inkscape:transform-center-y="0.41964373"><path
           id="rect5"
           style="stroke-width:0.569977"
           d="m 15.373716,3.3683014e-7 h 1.531735 V 7.4083336 h -1.531735 z" /><path
           id="rect6"
           style="stroke-width:0.569977"
           transform="rotate(90)"
           d="m 2.9383008,-19.84375 h 1.5317344 v 7.408333 H 2.9383008 Z" /></g><rect
         style="fill:#000000;stroke:#f2f2f2;stroke-width:0"
         id="rect1"
         width="14.552083"
         height="14.552083"
         x="4.7739811"
         y="-0.59424096"
         rx="0.59799999" /></g><g
       id="g1"
       transform="matrix(0.28000001,0,0,0.28000001,50.498317,0)"
       style="fill:#f2f2f2;fill-opacity:1"><path
         d="m 43,26 c -1.656,0 -3,1.343 -3,3 v 28 c 0,1.657 1.344,3 3,3 1.656,0 3,-1.343 3,-3 V 29 c 0,-1.657 -1.344,-3 -3,-3 z"
         id="path1"
         style="fill:#f2f2f2;fill-opacity:1" /><path
         d="m 87.506,23.807 c 0,0 -1.414,-4.242 -4.243,-7.07 -2.829,-2.828 -7.07,-4.243 -7.07,-4.243 l -8.988,8.988 C 62.408,18.202 56.916,15.876 51,14.758 V 2 C 51,2 47,0 43,0 39,0 35,2 35,2 V 14.758 C 15.102,18.52 0,36.024 0,57 0,80.71 19.29,100 43,100 66.71,100 86,80.71 86,57 86,48.029 83.235,39.695 78.518,32.795 Z M 43,94 C 22.598,94 6,77.402 6,57 6,36.598 22.598,20 43,20 63.402,20 80,36.598 80,57 80,77.402 63.402,94 43,94 Z"
         id="path2"
         style="fill:#f2f2f2;fill-opacity:1" /></g></g></svg>
