<?xml version="1.0" encoding="UTF-8" standalone="no"?>
<!-- Created with Inkscape (http://www.inkscape.org/) -->

<svg
   width="75"
   height="75"
   viewBox="0 0 19.843749 19.843749"
   version="1.1"
   id="svg5"
   xml:space="preserve"
   xmlns="http://www.w3.org/2000/svg"
   xmlns:svg="http://www.w3.org/2000/svg"><defs
     id="defs2" /><g
     id="layer1"
     transform="translate(-0.47829104,1.951332)"><g
       id="g2"
       transform="matrix(0.72,0,0,0.66,-2.2552704,6.4276897)"
       style="stroke-width:0.999496;stroke-dasharray:none"><g
         id="g3"
         transform="matrix(1.2909727,0,0,1.5574335,19.149886,3.5353971)"
         style="fill:#000000"><g
           id="g4"
           transform="translate(-13.138834,5.0824839)"
           style="fill:#000000"><g
             id="g5"
             transform="matrix(0.73227626,0,0,0.73227626,2.983935,-0.0338578)"><g
               id="g6"
               transform="translate(-2.0135361,-3.1973739)"><path
                 style="display:inline;fill:#000000;fill-opacity:1;stroke-width:0.689741;stroke-dasharray:none"
                 id="path1"
                 d="m 5.6838591,3.9725447 4.2882418,-8.7198144 4.2882421,-8.7198153 4.245192,8.7141566 4.245194,8.7141564 -8.533435,0.00568 z" /></g></g></g></g><g
         id="g16"
         transform="matrix(1.4242868,0,0,1.4242868,-12.95469,3.9435551)"><g
           id="g13"
           transform="matrix(0.30955507,0,0,0.37344821,27.79942,-7.5273018)"
           style="fill:#f1f1f1;fill-opacity:1"><g
             id="g12"
             transform="translate(-13.138834,5.0824839)"
             style="fill:#f1f1f1;fill-opacity:1"><g
               id="g11"
               transform="matrix(0.73227626,0,0,0.73227626,2.983935,-0.0338578)"
               style="fill:#f1f1f1;fill-opacity:1"><g
                 id="g10"
                 transform="translate(-2.0135361,-3.1973739)"
                 style="fill:#f1f1f1;fill-opacity:1"><path
                   style="display:inline;fill:#f1f1f1;fill-opacity:1;stroke-width:0.689741;stroke-dasharray:none"
                   id="path10"
                   d="m 5.6838591,3.9725447 4.2882418,-8.7198144 4.2882421,-8.7198153 4.245192,8.7141566 4.245194,8.7141564 -8.533435,0.00568 z" /></g></g></g></g><path
           style="fill:#f1f1f1;stroke:#f2f2f2;stroke-width:0;stroke-dasharray:none;fill-opacity:1"
           d="m 26.193666,-8.9762231 c 0.453227,-0.832067 0.442514,-0.793253 0.837868,-1.7708659 -0.477326,-0.386352 -1.169142,-0.647723 -1.733279,-0.935279 l 0.713813,1.320836 -1.840585,-0.513153 c 0.69156,0.573906 1.275208,1.4675273 2.022183,1.8984619 z"
           id="path13" /><path
           style="fill:#f1f1f1;stroke:#f2f2f2;stroke-width:0;stroke-dasharray:none;fill-opacity:1"
           d="M 25.808318,-8.4173741 25.36836,-7.6091992 23.887544,-9.1995471 Z"
           id="path14" /><path
           style="fill:#f1f1f1;stroke:#f2f2f2;stroke-width:0;stroke-dasharray:none;fill-opacity:1"
           d="m 28.742956,-8.9184516 c -0.465546,-0.832067 -0.454542,-0.793253 -0.860641,-1.7708664 0.490299,-0.386352 1.200919,-0.647723 1.780389,-0.935279 l -0.733214,1.320836 1.890611,-0.513153 c -0.710357,0.573906 -1.309868,1.4675278 -2.077145,1.8984624 z"
           id="path15" /><path
           style="fill:#f1f1f1;stroke:#f2f2f2;stroke-width:0;stroke-dasharray:none;fill-opacity:1"
           d="m 29.138777,-8.3596026 0.451916,0.8081749 1.521064,-1.5903479 z"
           id="path16" /></g></g></g></svg>
