<?xml version="1.0" encoding="UTF-8" standalone="no"?>
<!-- Created with Inkscape (http://www.inkscape.org/) -->

<svg
   width="75"
   height="75"
   viewBox="0 0 19.843749 19.843749"
   version="1.1"
   id="svg5"
   xml:space="preserve"
   sodipodi:docname="dart_damage_icon.svg"
   inkscape:version="1.4.2 (ebf0e94, 2025-05-08)"
   xmlns:inkscape="http://www.inkscape.org/namespaces/inkscape"
   xmlns:sodipodi="http://sodipodi.sourceforge.net/DTD/sodipodi-0.dtd"
   xmlns="http://www.w3.org/2000/svg"
   xmlns:svg="http://www.w3.org/2000/svg"><sodipodi:namedview
     id="namedview1"
     pagecolor="#ffffff"
     bordercolor="#000000"
     borderopacity="0.25"
     inkscape:showpageshadow="2"
     inkscape:pageopacity="0.0"
     inkscape:pagecheckerboard="0"
     inkscape:deskcolor="#d1d1d1"
     inkscape:zoom="3.9305797"
     inkscape:cx="27.349655"
     inkscape:cy="39.179971"
     inkscape:window-width="1366"
     inkscape:window-height="731"
     inkscape:window-x="0"
     inkscape:window-y="0"
     inkscape:window-maximized="1"
     inkscape:current-layer="g2"><inkscape:page
       x="0"
       y="0"
       width="19.843748"
       height="19.843748"
       id="page2"
       margin="0"
       bleed="0" /></sodipodi:namedview><defs
     id="defs2" /><g
     id="layer1"
     transform="translate(-0.47829104,1.951332)"><g
       id="g2"
       transform="matrix(0.72,0,0,0.66,-2.2552704,6.4276897)"
       style="stroke-width:0.999496;stroke-dasharray:none"><g
         id="g3"
         transform="matrix(1.2909727,0,0,1.5574335,19.149886,3.5353971)"
         style="fill:#000000"><g
           id="g4"
           transform="translate(-13.138834,5.0824839)"
           style="fill:#000000"><g
             id="g5"
             transform="matrix(0.73227626,0,0,0.73227626,2.983935,-0.0338578)"><g
               id="g6"
               transform="translate(-2.0135361,-3.1973739)"><path
                 style="display:inline;fill:#000000;fill-opacity:1;stroke-width:0.689741;stroke-dasharray:none"
                 id="path1"
                 d="m 5.6838591,3.9725447 4.2882418,-8.7198144 4.2882421,-8.7198153 4.245192,8.7141566 4.245194,8.7141564 -8.533435,0.00568 z" /></g></g></g></g><g
         id="g7"
         transform="matrix(0.36747683,0,0,0.40088382,-14.290242,-8.2532351)"><g
           id="g15"
           transform="matrix(1.2079582,0,0,1.2079582,82.229932,-57.256268)"
           style="fill:#f2f2f2"><path
             id="path10"
             style="fill:#f2f2f2;fill-opacity:1;stroke-width:1.03863"
             d="m 28.569127,38.225761 c -0.08802,0.120876 -0.186114,0.236978 -0.29346,0.346873 l -2.951617,3.02172 c -1.192923,1.221256 -3.113997,1.221256 -4.30692,0 l -2.951617,-3.02172 c -0.107346,-0.109895 -0.205433,-0.225997 -0.293461,-0.346873 -0.890204,1.222409 -0.792116,2.950979 0.293461,4.06234 l 2.951617,3.021718 c 1.192923,1.221256 3.113997,1.221256 4.30692,0 l 2.951617,-3.021718 c 1.085577,-1.111361 1.183665,-2.839931 0.29346,-4.06234 z"
             inkscape:transform-center-y="-10.240213" /><path
             id="path13"
             style="fill:#f2f2f2;fill-opacity:1;stroke-width:1.03863"
             d="m 34.760395,55.214103 c -0.120876,-0.08802 -0.236978,-0.186114 -0.346873,-0.29346 l -3.02172,-2.951617 c -1.221256,-1.192923 -1.221256,-3.113997 0,-4.30692 l 3.02172,-2.951617 c 0.109895,-0.107346 0.225997,-0.205433 0.346873,-0.293461 -1.222409,-0.890204 -2.950979,-0.792116 -4.06234,0.293461 l -3.021718,2.951617 c -1.221256,1.192923 -1.221256,3.113997 0,4.30692 l 3.021718,2.951617 c 1.111361,1.085577 2.839931,1.183665 4.06234,0.29346 z"
             inkscape:transform-center-y="-7.5898049" /><path
             id="path14"
             style="fill:#f2f2f2;fill-opacity:1;stroke-width:1.03863"
             d="m 17.772053,61.405371 c 0.08802,-0.120876 0.186114,-0.236978 0.29346,-0.346873 l 2.951617,-3.02172 c 1.192923,-1.221256 3.113997,-1.221256 4.30692,0 l 2.951617,3.02172 c 0.107346,0.109895 0.205433,0.225997 0.293461,0.346873 0.890204,-1.222409 0.792116,-2.950979 -0.293461,-4.06234 L 25.32405,54.321313 c -1.192923,-1.221256 -3.113997,-1.221256 -4.30692,0 l -2.951617,3.021718 c -1.085577,1.111361 -1.183665,2.839931 -0.29346,4.06234 z"
             inkscape:transform-center-y="-7.5898049" /><path
             id="rect1"
             style="fill:#f2f2f2;fill-opacity:1;stroke-width:1.03863"
             d="m 11.580785,44.417029 c 0.120876,0.08802 0.236978,0.186114 0.346873,0.29346 l 3.02172,2.951617 c 1.221256,1.192923 1.221256,3.113997 0,4.30692 l -3.02172,2.951617 c -0.109895,0.107346 -0.225997,0.205433 -0.346873,0.293461 1.222409,0.890204 2.950979,0.792116 4.06234,-0.293461 l 3.021718,-2.951617 c 1.221256,-1.192923 1.221256,-3.113997 0,-4.30692 l -3.021718,-2.951617 c -1.111361,-1.085577 -2.839931,-1.183665 -4.06234,-0.29346 z"
             inkscape:transform-center-x="7.5898049" /></g></g></g></g></svg>
