<?xml version="1.0" encoding="UTF-8" standalone="no"?>
<!-- Created with Inkscape (http://www.inkscape.org/) -->

<svg
   width="75"
   height="75"
   viewBox="0 0 19.843749 19.843749"
   version="1.1"
   id="svg5"
   xml:space="preserve"
   sodipodi:docname="darted_triangle_chance_icon.svg"
   inkscape:version="1.4.2 (ebf0e94, 2025-05-08)"
   xmlns:inkscape="http://www.inkscape.org/namespaces/inkscape"
   xmlns:sodipodi="http://sodipodi.sourceforge.net/DTD/sodipodi-0.dtd"
   xmlns="http://www.w3.org/2000/svg"
   xmlns:svg="http://www.w3.org/2000/svg"><sodipodi:namedview
     id="namedview1"
     pagecolor="#ffffff"
     bordercolor="#000000"
     borderopacity="0.25"
     inkscape:showpageshadow="2"
     inkscape:pageopacity="0.0"
     inkscape:pagecheckerboard="0"
     inkscape:deskcolor="#d1d1d1"
     inkscape:zoom="4.6177146"
     inkscape:cx="18.73221"
     inkscape:cy="39.413437"
     inkscape:window-width="1366"
     inkscape:window-height="731"
     inkscape:window-x="0"
     inkscape:window-y="0"
     inkscape:window-maximized="1"
     inkscape:current-layer="g5" /><defs
     id="defs2" /><g
     id="layer1"
     transform="translate(-0.47829104,1.951332)"><g
       id="g2"
       transform="matrix(0.72,0,0,0.66,-2.2552704,6.4276897)"
       style="stroke-width:0.999496;stroke-dasharray:none"><g
         id="g3"
         transform="matrix(1.0092273,0,0,1,18.764696,4.528142)"
         style="fill:#000000"><g
           id="g4"
           transform="translate(-13.138834,5.0824839)"
           style="fill:#000000"><g
             id="g5"
             transform="matrix(0.73227626,0,0,0.73227626,2.983935,-0.0338578)"><g
               id="g6"
               transform="translate(-2.0135361,-3.1973739)"><path
                 style="display:inline;fill:#000000;fill-opacity:1;stroke-width:0.689741;stroke-dasharray:none"
                 id="path1"
                 d="m 5.6838593,3.9725447 4.2882417,-8.7198144 4.288242,-8.7198153 4.245192,8.7141566 4.245194,8.7141564 -8.533435,0.00568 z" /><path
                 style="display:inline;fill:#000000;fill-opacity:1;stroke-width:0.280826;stroke-dasharray:none"
                 id="path2"
                 d="m 10.721304,-14.918003 1.756813,-3.528249 1.756813,-3.528249 1.739176,3.525959 1.739178,3.52596 -3.495991,0.0023 z" /><path
                 style="display:inline;fill:#000000;fill-opacity:1;stroke-width:0.280824;stroke-dasharray:none"
                 id="path3"
                 d="M -0.64318522,8.5977151 1.1136279,5.0694666 2.8704409,1.5412179 4.6096181,5.0671769 6.3487949,8.5931357 2.8528047,8.5954254 Z" /><path
                 style="display:inline;fill:#000000;fill-opacity:1;stroke-width:0.280826;stroke-dasharray:none"
                 id="path4"
                 d="m 22.199233,8.5977151 1.756813,-3.5282485 1.756813,-3.5282487 1.739177,3.5259592 1.739176,3.5259591 -3.49599,0.00229 z" /></g></g></g></g><g
         id="g12"
         transform="matrix(2.665939,0,0,2.7582474,-18.719982,-19.169196)"
         style="fill:#f2f2f2"><path
           d="m 15.850617,2.3470371 a 0.92604139,0.92604139 0 0 0 -0.926042,0.9260413 0.92604139,0.92604139 0 0 0 0.926042,0.9260414 0.92604139,0.92604139 0 0 0 0.926041,-0.9260414 0.92604139,0.92604139 0 0 0 -0.926041,-0.9260413 z m 0,0.4630207 a 0.46302068,0.46302068 0 0 1 0.46302,0.4630206 0.46302068,0.46302068 0 0 1 -0.46302,0.4630207 0.46302068,0.46302068 0 0 1 -0.463021,-0.4630207 0.46302068,0.46302068 0 0 1 0.463021,-0.4630206 z"
           style="fill:#f2f2f2;stroke:#000000;stroke-width:0"
           id="path9" /><path
           d="m 17.858094,4.5644761 a 0.92604139,0.92604139 0 0 0 -0.926042,0.9260413 0.92604139,0.92604139 0 0 0 0.926042,0.9260414 0.92604139,0.92604139 0 0 0 0.926041,-0.9260414 0.92604139,0.92604139 0 0 0 -0.926041,-0.9260413 z m 0,0.4630207 a 0.46302068,0.46302068 0 0 1 0.46302,0.4630206 0.46302068,0.46302068 0 0 1 -0.46302,0.4630207 0.46302068,0.46302068 0 0 1 -0.463021,-0.4630207 0.46302068,0.46302068 0 0 1 0.463021,-0.4630206 z"
           style="fill:#f2f2f2;stroke:#000000;stroke-width:0"
           id="path10" /><rect
           style="fill:#f2f2f2;stroke:#000000;stroke-width:0"
           id="rect10"
           width="0.55781782"
           height="4.8148351"
           x="14.892505"
           y="-10.888947"
           transform="rotate(43.946614)" /></g></g></g></svg>
