<?xml version="1.0" encoding="UTF-8" standalone="no"?>
<!-- Created with Inkscape (http://www.inkscape.org/) -->

<svg
   width="75"
   height="75"
   viewBox="0 0 19.843748 19.843748"
   version="1.1"
   id="svg1"
   xml:space="preserve"
   sodipodi:docname="fractalization_chance_icon.svg"
   inkscape:version="1.4.2 (ebf0e94, 2025-05-08)"
   xmlns:inkscape="http://www.inkscape.org/namespaces/inkscape"
   xmlns:sodipodi="http://sodipodi.sourceforge.net/DTD/sodipodi-0.dtd"
   xmlns="http://www.w3.org/2000/svg"
   xmlns:svg="http://www.w3.org/2000/svg"><sodipodi:namedview
     id="namedview1"
     pagecolor="#ffffff"
     bordercolor="#000000"
     borderopacity="0.25"
     inkscape:showpageshadow="2"
     inkscape:pageopacity="0.0"
     inkscape:pagecheckerboard="0"
     inkscape:deskcolor="#d1d1d1"
     showgrid="false"
     inkscape:zoom="3.8919134"
     inkscape:cx="14.003395"
     inkscape:cy="34.173422"
     inkscape:window-width="1366"
     inkscape:window-height="731"
     inkscape:window-x="0"
     inkscape:window-y="0"
     inkscape:window-maximized="1"
     inkscape:current-layer="svg1" /><defs
     id="defs1" /><path
     d="M 9.9725169,9.8794993 7.9592033,5.9221185 5.9877476,9.8903514 Z"
     style="stroke:#ff0000;stroke-width:0"
     id="path17" /><path
     d="M 9.9156728,1.9843748 7.9700553,5.9004144 11.902115,5.8895624 Z"
     style="stroke:#ff0000;stroke-width:0"
     id="path16" /><path
     d="M 11.933637,5.9526076 9.9828522,9.8794993 13.925764,9.869164 Z"
     style="stroke:#ff0000;stroke-width:0"
     id="path15" /><path
     d="M 5.9691441,17.848521 3.9558305,13.890624 1.9843748,17.859373 Z"
     style="stroke:#000000;stroke-width:0"
     id="path11" /><path
     d="m 7.9302645,13.921629 -1.9507851,3.926892 3.9429114,-0.01034 z"
     style="stroke:#000000;stroke-width:0"
     id="path8" /><path
     d="M 5.9117833,9.9533966 3.9666825,13.869436 7.8982251,13.858584 Z"
     style="stroke:#000000;stroke-width:0"
     id="path2" /><path
     d="m 15.867247,13.921629 -1.950785,3.926892 3.942911,-0.01034 z"
     style="stroke:#000000;stroke-width:0"
     id="path14" /><path
     d="m 13.849282,9.9533966 -1.945617,3.9160394 3.932059,-0.01085 z"
     style="stroke:#000000;stroke-width:0"
     id="path13" /><path
     d="M 13.906127,17.848521 11.892813,13.89114 9.9213572,17.859373 Z"
     style="stroke:#000000;stroke-width:0"
     id="path12" /><g
     id="g11"><g
       id="g12"
       transform="matrix(1.9194759,0,0,1.8204431,-16.211946,-4.2726475)"
       style="fill:#f2f2f2"><path
         d="m 15.850617,2.3470371 a 0.92604139,0.92604139 0 0 0 -0.926042,0.9260413 0.92604139,0.92604139 0 0 0 0.926042,0.9260414 0.92604139,0.92604139 0 0 0 0.926041,-0.9260414 0.92604139,0.92604139 0 0 0 -0.926041,-0.9260413 z m 0,0.4630207 a 0.46302068,0.46302068 0 0 1 0.46302,0.4630206 0.46302068,0.46302068 0 0 1 -0.46302,0.4630207 0.46302068,0.46302068 0 0 1 -0.463021,-0.4630207 0.46302068,0.46302068 0 0 1 0.463021,-0.4630206 z"
         style="stroke:#000000;stroke-width:0;fill:#f2f2f2"
         id="path9" /><path
         d="m 17.858094,4.5644761 a 0.92604139,0.92604139 0 0 0 -0.926042,0.9260413 0.92604139,0.92604139 0 0 0 0.926042,0.9260414 0.92604139,0.92604139 0 0 0 0.926041,-0.9260414 0.92604139,0.92604139 0 0 0 -0.926041,-0.9260413 z m 0,0.4630207 a 0.46302068,0.46302068 0 0 1 0.46302,0.4630206 0.46302068,0.46302068 0 0 1 -0.46302,0.4630207 0.46302068,0.46302068 0 0 1 -0.463021,-0.4630207 0.46302068,0.46302068 0 0 1 0.463021,-0.4630206 z"
         style="stroke:#000000;stroke-width:0;fill:#f2f2f2"
         id="path10" /><rect
         style="fill:#f2f2f2;stroke:#000000;stroke-width:0"
         id="rect10"
         width="0.55781782"
         height="4.8148351"
         x="14.892505"
         y="-10.888947"
         transform="rotate(43.946614)" /></g></g></svg>
