<?xml version="1.0" encoding="UTF-8" standalone="no"?>
<!-- Created with Inkscape (http://www.inkscape.org/) -->

<svg
   width="75"
   height="75"
   viewBox="0 0 19.84375 19.84375"
   version="1.1"
   id="svg1"
   xml:space="preserve"
   sodipodi:docname="lucky_triangle_multiplier_icon.svg"
   inkscape:version="1.4.2 (ebf0e94, 2025-05-08)"
   xmlns:inkscape="http://www.inkscape.org/namespaces/inkscape"
   xmlns:sodipodi="http://sodipodi.sourceforge.net/DTD/sodipodi-0.dtd"
   xmlns="http://www.w3.org/2000/svg"
   xmlns:svg="http://www.w3.org/2000/svg"><sodipodi:namedview
     id="namedview1"
     pagecolor="#ffffff"
     bordercolor="#000000"
     borderopacity="0.25"
     inkscape:showpageshadow="2"
     inkscape:pageopacity="0.0"
     inkscape:pagecheckerboard="0"
     inkscape:deskcolor="#d1d1d1"
     inkscape:zoom="4.2946443"
     inkscape:cx="60.889793"
     inkscape:cy="57.280646"
     inkscape:window-width="1366"
     inkscape:window-height="731"
     inkscape:window-x="0"
     inkscape:window-y="0"
     inkscape:window-maximized="1"
     inkscape:current-layer="svg1" /><defs
     id="defs1" /><g
     id="g2"
     transform="translate(2.3962805)"><path
       style="fill:#000000;stroke:#000000;stroke-width:0"
       id="path1"
       d="M 3.2794337e-8,17.197917 7.6820572,2.6458333 15.051189,17.161729 Z" /><g
       id="g31"
       transform="translate(-2.4770474,-0.88843496)"><path
         style="fill:#000000;stroke:#000000;stroke-width:0"
         id="path17"
         d="m 14.466252,8.6091842 -0.04709,-1.2780343 -0.729151,-1.0506794 1.278034,-0.047087 1.05068,-0.7291511 0.04709,1.2780343 0.729151,1.0506794 -1.278035,0.047087 z"
         transform="matrix(0.77954695,0,0,0.77954695,3.3351853,1.2359936)" /><path
         style="fill:#000000;stroke:#000000;stroke-width:0"
         id="path19"
         d="M 3.7400553,10.443928 2.8846891,9.9635347 1.9053112,10.020525 2.3857044,9.1651592 2.3287137,8.1857813 3.1840799,8.6661746 4.1634578,8.6091838 3.6830645,9.46455 Z"
         transform="matrix(0.77954695,0,0,0.77954695,10.632387,-0.80818157)" /><path
         style="fill:#000000;stroke:#000000;stroke-width:0"
         id="path21"
         d="M 10.091092,18.488575 9.0867651,18.385967 8.1857811,18.841411 8.2883897,17.837084 7.8329457,16.9361 8.8372728,17.038708 9.7382569,16.583264 9.6356483,17.587591 Z"
         transform="matrix(0.77954695,0,0,0.77954695,7.1567239,-9.0017552)" /></g><path
       style="fill:#000000;stroke:#000000;stroke-width:0"
       id="path22"
       d="M 8.116873,19.960057 8.080164,18.96377 7.5117565,18.144716 l 0.9962875,-0.03671 0.8190544,-0.568407 0.036709,0.996287 0.5684074,0.819054 -0.9962883,0.03671 z" /><path
       style="fill:#000000;stroke:#000000;stroke-width:0"
       id="path23"
       d="m 7.0525008,19.34615 -0.6667981,-0.374489 -0.7634711,0.04443 0.3744891,-0.666798 -0.044427,-0.763471 0.6667981,0.374489 0.763471,-0.04443 -0.3744891,0.666798 z" /><g
       id="g29"
       transform="rotate(57.026806,8.033729,-4.6314814)"
       style="fill:#000000"><path
         style="fill:#000000;stroke:#000000;stroke-width:0"
         id="path27"
         d="m 14.466252,8.6091842 -0.04709,-1.2780343 -0.729151,-1.0506794 1.278034,-0.047087 1.05068,-0.7291511 0.04709,1.2780343 0.729151,1.0506794 -1.278035,0.047087 z"
         transform="matrix(0.77954695,0,0,0.77954695,3.3351853,1.2359936)" /><path
         style="fill:#000000;stroke:#000000;stroke-width:0"
         id="path28"
         d="M 3.7400553,10.443928 2.8846891,9.9635347 1.9053112,10.020525 2.3857044,9.1651592 2.3287137,8.1857813 3.1840799,8.6661746 4.1634578,8.6091838 3.6830645,9.46455 Z"
         transform="matrix(0.77954695,0,0,0.77954695,10.632387,-0.80818157)" /><path
         style="fill:#000000;stroke:#000000;stroke-width:0"
         id="path29"
         d="M 10.091092,18.488575 9.0867651,18.385967 8.1857811,18.841411 8.2883897,17.837084 7.8329457,16.9361 8.8372728,17.038708 9.7382569,16.583264 9.6356483,17.587591 Z"
         transform="matrix(0.77954695,0,0,0.77954695,7.1567239,-9.0017552)" /></g></g><g
     id="g1"
     transform="matrix(0.82866625,0.82866625,-0.82866625,0.82866625,5.8347738,-12.73968)"><rect
       style="fill:#f2f2f2;stroke-width:0.569977"
       id="rect5"
       width="1.5317343"
       height="7.4083333"
       x="15.373716"
       y="3.3683014e-07" /><rect
       style="fill:#f2f2f2;stroke-width:0.569977"
       id="rect6"
       width="1.5317343"
       height="7.4083333"
       x="2.9383008"
       y="-19.84375"
       transform="rotate(90)" /></g></svg>
