<?xml version="1.0" encoding="UTF-8" standalone="no"?>
<!-- Created with Inkscape (http://www.inkscape.org/) -->

<svg
   width="85"
   height="85"
   viewBox="0 0 22.489584 22.489584"
   version="1.1"
   id="svg1"
   xml:space="preserve"
   sodipodi:docname="reinforced_triangle_chance_icon.svg"
   inkscape:version="1.4.2 (ebf0e94, 2025-05-08)"
   xmlns:inkscape="http://www.inkscape.org/namespaces/inkscape"
   xmlns:sodipodi="http://sodipodi.sourceforge.net/DTD/sodipodi-0.dtd"
   xmlns="http://www.w3.org/2000/svg"
   xmlns:svg="http://www.w3.org/2000/svg"><sodipodi:namedview
     id="namedview1"
     pagecolor="#ffffff"
     bordercolor="#000000"
     borderopacity="0.25"
     inkscape:showpageshadow="2"
     inkscape:pageopacity="0.0"
     inkscape:pagecheckerboard="0"
     inkscape:deskcolor="#d1d1d1"
     inkscape:zoom="1.6863784"
     inkscape:cx="-59.595165"
     inkscape:cy="144.09577"
     inkscape:window-width="1366"
     inkscape:window-height="731"
     inkscape:window-x="0"
     inkscape:window-y="0"
     inkscape:window-maximized="1"
     inkscape:current-layer="layer1" /><defs
     id="defs1" /><g
     id="layer1"
     transform="translate(0.1247988,2.6458335)"><g
       id="g1"
       transform="translate(1.1981181,-1.3229167)"><path
         d="M 10.078455,2.6458333 2.3962362,17.197917 17.447514,17.161743 Z m -0.02842,1.9068604 6.029089,11.8762773 -12.3144939,0.02997 z"
         style="stroke:#000000;stroke-width:0"
         id="path4" /><path
         style="fill:#000000;stroke:#000000;stroke-width:0"
         id="path3"
         d="M 5.0391197,29.954769 32.580209,-25.139243 66.522478,26.259046 Z"
         transform="matrix(0.17726815,0.01146314,-0.01279255,0.19782623,3.9167678,10.199971)" /></g><g
       id="g12"
       transform="matrix(1.9194761,0,0,1.8204433,-13.690913,-6.9184815)"
       style="fill:#f2f2f2"><path
         d="m 15.850617,2.3470371 a 0.92604139,0.92604139 0 0 0 -0.926042,0.9260413 0.92604139,0.92604139 0 0 0 0.926042,0.9260414 0.92604139,0.92604139 0 0 0 0.926041,-0.9260414 0.92604139,0.92604139 0 0 0 -0.926041,-0.9260413 z m 0,0.4630207 a 0.46302068,0.46302068 0 0 1 0.46302,0.4630206 0.46302068,0.46302068 0 0 1 -0.46302,0.4630207 0.46302068,0.46302068 0 0 1 -0.463021,-0.4630207 0.46302068,0.46302068 0 0 1 0.463021,-0.4630206 z"
         style="fill:#f2f2f2;stroke:#000000;stroke-width:0"
         id="path9" /><path
         d="m 17.858094,4.5644761 a 0.92604139,0.92604139 0 0 0 -0.926042,0.9260413 0.92604139,0.92604139 0 0 0 0.926042,0.9260414 0.92604139,0.92604139 0 0 0 0.926041,-0.9260414 0.92604139,0.92604139 0 0 0 -0.926041,-0.9260413 z m 0,0.4630207 a 0.46302068,0.46302068 0 0 1 0.46302,0.4630206 0.46302068,0.46302068 0 0 1 -0.46302,0.4630207 0.46302068,0.46302068 0 0 1 -0.463021,-0.4630207 0.46302068,0.46302068 0 0 1 0.463021,-0.4630206 z"
         style="fill:#f2f2f2;stroke:#000000;stroke-width:0"
         id="path10" /><rect
         style="fill:#f2f2f2;stroke:#000000;stroke-width:0"
         id="rect10"
         width="0.55781782"
         height="4.8148351"
         x="14.892505"
         y="-10.888947"
         transform="rotate(43.946614)" /></g></g></svg>
