<?xml version="1.0" encoding="UTF-8" standalone="no"?>
<!-- Created with Inkscape (http://www.inkscape.org/) -->

<svg
   width="75"
   height="75"
   viewBox="0 0 19.84375 19.84375"
   version="1.1"
   id="svg1"
   xml:space="preserve"
   inkscape:version="1.4.2 (ebf0e94, 2025-05-08)"
   sodipodi:docname="triangle_value_icon.svg"
   inkscape:export-filename="triangle_value_icon.svg"
   inkscape:export-xdpi="96"
   inkscape:export-ydpi="96"
   xmlns:inkscape="http://www.inkscape.org/namespaces/inkscape"
   xmlns:sodipodi="http://sodipodi.sourceforge.net/DTD/sodipodi-0.dtd"
   xmlns="http://www.w3.org/2000/svg"
   xmlns:svg="http://www.w3.org/2000/svg"><sodipodi:namedview
     id="namedview1"
     pagecolor="#ffffff"
     bordercolor="#000000"
     borderopacity="0.25"
     inkscape:showpageshadow="2"
     inkscape:pageopacity="0.0"
     inkscape:pagecheckerboard="0"
     inkscape:deskcolor="#d1d1d1"
     inkscape:document-units="mm"
     inkscape:zoom="4.413466"
     inkscape:cx="37.725452"
     inkscape:cy="32.174259"
     inkscape:window-width="1366"
     inkscape:window-height="731"
     inkscape:window-x="0"
     inkscape:window-y="0"
     inkscape:window-maximized="1"
     inkscape:current-layer="g2"
     showguides="false" /><defs
     id="defs1" /><g
     inkscape:label="Layer 1"
     inkscape:groupmode="layer"
     id="layer1"><g
       id="g1"
       style="fill:none"
       transform="matrix(1.0714286,0,0,1.0714286,-2.4964952,-0.11988151)"
       inkscape:transform-center-x="1.0790839"
       inkscape:transform-center-y="0.41964373"><path
         id="rect5"
         style="stroke-width:0.569977"
         d="m 15.373716,3.3683014e-7 h 1.531735 V 7.4083336 h -1.531735 z" /><path
         id="rect6"
         style="stroke-width:0.569977"
         transform="rotate(90)"
         d="m 2.9383008,-19.84375 h 1.5317344 v 7.408333 H 2.9383008 Z" /><g
         id="g2"
         transform="matrix(1.241685,0,0,1.241685,-3.9377041,-2.8656143)"><path
           d="m 17.979031,7.7557455 q -0.41504,-0.00755 -0.807442,-0.067915 -0.392402,-0.067915 -0.633879,-0.1811084 v -0.641426 q 0.25657,0.1207389 0.656517,0.2112931 0.399949,0.090554 0.784804,0.098101 V 5.6503599 Q 17.231959,5.4466129 16.884834,5.1372193 16.53771,4.8278257 16.53771,4.2920466 q 0,-0.5584178 0.384855,-0.8753575 0.392402,-0.3169398 1.056466,-0.3546707 V 2.3979541 h 0.482956 v 0.656518 q 0.399947,0.00755 0.724434,0.090554 0.332032,0.075462 0.603695,0.1886546 l -0.203748,0.5584178 q -0.241477,-0.0981 -0.535779,-0.1660162 -0.286755,-0.075462 -0.588602,-0.0981 v 1.5167832 q 0.498048,0.1433775 0.83008,0.3093935 0.332032,0.1584699 0.498049,0.3999478 0.173562,0.2339318 0.173562,0.611241 0,0.528233 -0.392402,0.8602652 -0.392402,0.3244859 -1.109289,0.3999477 v 0.8376266 h -0.482956 z m 0,-4.1126709 q -0.407494,0.030185 -0.603695,0.1886547 -0.188654,0.1584699 -0.188654,0.4074939 0,0.3018474 0.166015,0.4678635 0.173563,0.1584699 0.626334,0.2716627 z m 0.482956,3.4938837 q 0.445224,-0.045277 0.648972,-0.203747 0.203747,-0.1660161 0.203747,-0.4225863 0,-0.2867551 -0.181109,-0.4301326 -0.181108,-0.1509237 -0.67161,-0.2716626 z"
           id="text1"
           style="font-size:9.06771px;font-family:Sans;-inkscape-font-specification:Sans;fill:#f2f2f2;stroke:#f2f2f2;stroke-width:0"
           aria-label="$" /></g></g><g
       id="layer1-5"
       transform="translate(-3.462129,-1.513362)"><g
         id="g3"
         transform="translate(3.462129,1.513362)"><path
           style="fill:#000000;stroke:#000000;stroke-width:0"
           id="path1"
           d="M 5.0391197,29.954769 32.580209,-25.139243 66.522478,26.259046 Z"
           transform="matrix(0.24374371,0.01576182,-0.01758975,0.27201107,1.6949238,8.9704623)" /></g></g></g></svg>
