<?xml version="1.0" encoding="UTF-8" standalone="no"?>
<svg
   version="1.1"
   viewBox="0 0 90 90"
   id="svg6"
   width="90"
   height="90"
   sodipodi:docname="cursor_64.svg"
   inkscape:version="1.4.2 (ebf0e94, 2025-05-08)"
   inkscape:export-filename="cursor_128.svg"
   inkscape:export-xdpi="96"
   inkscape:export-ydpi="96"
   xmlns:inkscape="http://www.inkscape.org/namespaces/inkscape"
   xmlns:sodipodi="http://sodipodi.sourceforge.net/DTD/sodipodi-0.dtd"
   xmlns="http://www.w3.org/2000/svg"
   xmlns:svg="http://www.w3.org/2000/svg">
  <sodipodi:namedview
     id="namedview1"
     pagecolor="#ffffff"
     bordercolor="#000000"
     borderopacity="0.25"
     inkscape:showpageshadow="2"
     inkscape:pageopacity="0.0"
     inkscape:pagecheckerboard="0"
     inkscape:deskcolor="#d1d1d1"
     showgrid="false"
     inkscape:zoom="9.8057815"
     inkscape:cx="9.2292491"
     inkscape:cy="17.030769"
     inkscape:window-width="1366"
     inkscape:window-height="731"
     inkscape:window-x="0"
     inkscape:window-y="0"
     inkscape:window-maximized="1"
     inkscape:current-layer="svg6">
    <inkscape:page
       x="0"
       y="0"
       width="90"
       height="90"
       id="page2"
       margin="0"
       bleed="0" />
  </sodipodi:namedview>
  <defs
     id="defs6" />
  <path
     d="m 6.4494579,0 0.0018,0.00180396 C 2.090651,-0.06791889 -1.0403932,4.1775546 0.3223959,8.3204283 L 40.470975,130.64764 c 1.696509,5.13676 8.632476,5.92472 11.438553,1.3001 l 18.36018,-30.29375 26.419839,26.41807 c 2.475396,2.47458 6.487563,2.47458 8.963403,0 l 22.45608,-22.44374 c 2.47412,-2.4752 2.47412,-6.48819 0,-8.963397 L 101.69094,70.246836 131.94771,51.911325 c 4.625,-2.806083 3.83653,-9.741732 -1.30011,-11.438559 L 8.3185902,0.32415273 C 7.7152215,0.12131598 7.085271,0.01268181 6.4494579,0 Z"
     style="fill:#f2f2f2;stroke-width:0.901974"
     id="path7" />
</svg>
