<?xml version="1.0" encoding="UTF-8" standalone="no"?>
<!-- Created with Inkscape (http://www.inkscape.org/) -->

<svg
   width="130.09676"
   height="146.55623"
   viewBox="0 0 34.421431 38.776335"
   version="1.1"
   id="svg1"
   xml:space="preserve"
   xmlns="http://www.w3.org/2000/svg"
   xmlns:svg="http://www.w3.org/2000/svg"><defs
     id="defs1" /><path
     id="path1"
     style="fill:#f2f2f2;fill-opacity:1;stroke:#f2f2f2;stroke-width:0"
     d="M 0.95932478,2.7471576 H 3.7500877 V 3.4000355 A 1.2948421,1.2948421 135 0 1 2.4552456,4.6948776 h 0 A 1.4959208,1.4959208 45 0 1 0.95932478,3.1989568 Z"
     transform="matrix(5.370409,0,0,5.0439122,4.2525368,6.798418)" /><g
     id="layer1"
     transform="translate(9.4045032,8.4405149)"><g
       id="g20"
       transform="matrix(5.0156745,0,0,5.0156745,0,-0.10169909)"><g
         id="g5"
         transform="translate(-0.59515101,-1.5407338)"
         style="fill:#f2f2f2;fill-opacity:1"><rect
           style="fill:#f2f2f2;fill-opacity:1;stroke:#f2f2f2;stroke-width:0"
           id="rect2"
           width="0.5261426"
           height="1.6836563"
           x="1.8126433"
           y="1.6836565"
           rx="0.2" /><g
           id="g4"
           style="fill:#f2f2f2;fill-opacity:1"><path
             id="rect1"
             style="fill:#808080;fill-opacity:1;stroke:#f2f2f2;stroke-width:0"
             d="m 2.2631003,0.8842243 h 0.5596158 v 2.159548 H 0.59515101 V 2.5521736 A 1.6679493,1.6679493 135 0 1 2.2631003,0.8842243 Z"
             transform="matrix(0.4751077,0,0,1,0.31239018,0.68184445)" /><path
             id="path3"
             style="fill:#f2f2f2;fill-opacity:1;stroke:#f2f2f2;stroke-width:0"
             d="m 2.2631003,0.8842243 h 0.5596158 v 2.159548 H 0.59515101 V 2.5521736 A 1.6679493,1.6679493 135 0 1 2.2631003,0.8842243 Z"
             transform="matrix(-0.4751077,0,0,1,3.839039,0.68183503)" /></g><g
           id="g2"
           transform="matrix(0.16496193,0,0,0.13197285,-0.85744211,-0.11026171)"
           style="fill:#f2f2f2;fill-opacity:1"><rect
             style="fill:#f2f2f2;fill-opacity:1;stroke-width:0.455372"
             id="rect1-6"
             width="2.0765955"
             height="4.453548"
             x="16.742512"
             y="6.2105794" /><path
             style="fill:#f2f2f2;fill-opacity:1;stroke-width:0.264583"
             id="path2"
             d="M 19.341832,3.1071216 11.82398,3.1364243 15.557529,-3.388878 Z"
             transform="matrix(0.98543217,0,0,0.973135,2.4249129,3.2102745)" /></g><g
           id="g6"
           transform="matrix(0,-0.16496193,0.13197285,0,-1.2683159,6.7319825)"
           style="fill:#f2f2f2;fill-opacity:1"><rect
             style="fill:#f2f2f2;fill-opacity:1;stroke-width:0.455372"
             id="rect6"
             width="2.0765955"
             height="4.453548"
             x="16.742512"
             y="6.2105794" /><path
             style="fill:#f2f2f2;fill-opacity:1;stroke-width:0.264583"
             id="path6"
             d="M 19.341832,3.1071216 11.82398,3.1364243 15.557529,-3.388878 Z"
             transform="matrix(0.98543217,0,0,0.973135,2.4249129,3.2102745)" /></g><g
           id="g7"
           transform="matrix(0,0.16496193,-0.13197285,0,5.5713458,0.85188725)"
           style="fill:#f2f2f2;fill-opacity:1"><rect
             style="fill:#f2f2f2;fill-opacity:1;stroke-width:0.455372"
             id="rect7"
             width="2.0765955"
             height="4.453548"
             x="16.742512"
             y="6.2105794" /><path
             style="fill:#f2f2f2;fill-opacity:1;stroke-width:0.264583"
             id="path7"
             d="M 19.341832,3.1071216 11.82398,3.1364243 15.557529,-3.388878 Z"
             transform="matrix(0.98543217,0,0,0.973135,2.4249129,3.2102745)" /></g><g
           id="g8"
           transform="matrix(-0.16496193,0,0,-0.13197285,5.0364351,7.5976583)"
           style="fill:#f2f2f2;fill-opacity:1"><rect
             style="fill:#f2f2f2;fill-opacity:1;stroke-width:0.455372"
             id="rect8"
             width="2.0765955"
             height="4.453548"
             x="16.742512"
             y="6.2105794" /><path
             style="fill:#f2f2f2;fill-opacity:1;stroke-width:0.264583"
             id="path8"
             d="M 19.341832,3.1071216 11.82398,3.1364243 15.557529,-3.388878 Z"
             transform="matrix(0.98543217,0,0,0.973135,2.4249129,3.2102745)" /></g></g></g></g></svg>
