<?xml version="1.0" encoding="UTF-8" standalone="no"?>
<svg
   viewBox="0 0 90.000003 125"
   version="1.1"
   id="svg2"
   width="90"
   height="125"
   xmlns="http://www.w3.org/2000/svg"
   xmlns:svg="http://www.w3.org/2000/svg">
  <defs
     id="defs2" />
  <path
     d="m 45,18.048302 c -18.341418,0 -33.106724,16.158469 -33.106724,36.230469 v 19.128906 h 9.196709 V 54.278771 c 0,-14.496 10.662928,-26.166016 23.910015,-26.166016 13.247087,0 23.9118,11.669016 23.9118,26.166016 v 19.128906 h 9.194924 V 54.278771 C 78.106724,34.206771 63.341418,18.048302 45,18.048302 Z"
     id="path7"
     style="fill:#747474;fill-opacity:1;stroke-width:0.955919" />
  <path
     d="m 14.098084,62.288737 c -5.3107106,0 -9.5860085,4.956699 -9.5860085,11.112702 V 113.8873 c 0,6.156 4.2752979,11.1127 9.5860085,11.1127 h 61.803832 c 5.31071,0 9.586008,-4.9567 9.586008,-11.1127 V 73.401439 c 0,-6.156003 -4.275298,-11.112702 -9.586008,-11.112702 z M 45,82.249956 a 8.0975849,8.0628766 0 0 1 8.097585,8.062877 8.0975849,8.0628766 0 0 1 -4.131385,7.023522 4.0487924,8.0628766 0 0 1 0.08259,1.599276 4.0487924,8.0628766 0 0 1 -4.048792,8.062879 4.0487924,8.0628766 0 0 1 -4.048793,-8.062879 4.0487924,8.0628766 0 0 1 0.05799,-1.36131 c -0.03966,-0.12034 -0.08574,-0.228481 -0.14234,-0.328954 A 8.0975849,8.0628766 0 0 1 36.902415,90.312833 8.0975849,8.0628766 0 0 1 45,82.249956 Z"
     style="fill:#747474;fill-opacity:1;stroke-width:1.37611"
     id="path18" />
  <path
     style="fill:none;fill-opacity:1;stroke-width:0.347083"
     d="m 8.4863676,124.48031 c -3.615496,-0.98254 -6.428779,-3.86468 -7.62880395,-7.81549 -0.68624209,-2.25931 -0.7032717,-3.02859 -0.60824492,-27.476223 l 0.097764,-25.151833 0.90280137,-1.924792 c 0.4965408,-1.058637 1.4336642,-2.530754 2.0824964,-3.271369 1.3250075,-1.512448 3.9602675,-3.307366 4.8557993,-3.307366 0.5411422,0 0.6030153,-1.013089 0.7472167,-12.234666 C 9.0863067,31.554916 9.1280413,30.930871 9.9753105,27.749066 12.233181,19.269941 16.647891,12.525288 23.144055,7.6302821 29.78979,2.6225697 36.768116,0.30366942 45.120755,0.32741567 61.739816,0.37466311 75.531381,11.084187 79.917597,27.348102 c 0.884128,3.278316 0.912144,3.700687 1.043984,15.738867 l 0.135473,12.370146 0.92786,0.188914 c 1.509723,0.307387 4.167787,2.281892 5.313396,3.946973 0.586753,0.85282 1.366752,2.403919 1.733324,3.446889 0.637622,1.814149 0.662366,3.00466 0.571107,27.477797 l -0.0954,25.581482 -0.981227,2.12326 c -1.175552,2.54375 -3.248469,4.66945 -5.613345,5.75627 l -1.735413,0.79754 -35.57598,0.0666 c -27.342881,0.0512 -35.941405,-0.0327 -37.1550124,-0.36253 z M 46.538977,104.5103 c 1.386207,-0.84531 2.601108,-3.44574 2.763688,-5.915546 l 0.127192,-1.932213 -0.294087,1.819165 c -0.374023,2.313604 -1.659093,4.887854 -2.884146,5.777484 -0.91321,0.66318 -1.001653,0.66722 -2.190543,0.10028 -1.808336,-0.86233 -3.015532,-3.65662 -3.21518,-7.442153 -0.149919,-2.842607 -0.163497,-2.878624 -1.477445,-3.919289 -0.734278,-0.581558 -1.742074,-1.900469 -2.258106,-2.955198 -0.809956,-1.655491 -0.910096,-2.210587 -0.764898,-4.239924 0.187442,-2.619781 0.729169,-3.880316 2.392834,-5.56787 2.409809,-2.444407 5.513215,-3.291361 8.672566,-2.366837 6.734648,1.970767 8.535039,10.536474 3.177213,15.116203 -1.471863,1.258109 -1.540117,1.393512 -1.176197,2.333336 l 0.386334,0.997721 -0.162112,-1.041249 c -0.139864,-0.898343 0.0217,-1.167721 1.177225,-1.962773 3.972768,-2.73345 4.364631,-9.792849 0.744544,-13.41294 -5.694173,-5.694169 -15.617008,-1.797916 -15.631405,6.137752 -0.0053,2.893563 0.643391,4.512531 2.631543,6.568156 l 1.781801,1.842273 0.183142,2.935557 c 0.212258,3.402265 1.354719,6.193215 2.933849,7.167205 1.245305,0.76808 1.769334,0.76143 3.082188,-0.0391 z M 71.234007,43.298571 C 71.077303,30.011046 71.005287,29.510638 68.520063,24.440652 65.23421,17.737338 58.893956,12.595549 51.620119,10.735214 48.010834,9.8121153 42.205854,9.8219877 38.494932,10.757536 29.330187,13.068031 22.057094,20.222934 19.541958,29.402518 18.872908,31.844375 18.78718,33.218696 18.65349,43.645654 l -0.147967,11.540501 h 26.43434 26.434338 z"
     id="path11" />
  <path
     style="fill:none;fill-opacity:1;stroke-width:0.347083"
     d="m 8.1541972,124.45195 c -2.750379,-0.83663 -5.3708239,-3.30709 -6.8350226,-6.44382 L 0.34708273,115.92563 0.24935597,90.801876 C 0.16308685,68.623661 0.21671492,65.449648 0.70677193,63.729423 1.7667726,60.008543 4.6348134,56.6972 7.6632223,55.697734 l 1.1873874,-0.39187 V 45.171502 c 0,-5.573895 0.1625722,-11.457851 0.3612718,-13.075454 C 11.539445,13.147455 27.97467,-0.74844227 46.836358,0.28474917 62.764463,1.157247 75.726719,11.82796 80.020244,27.602192 c 0.750406,2.756958 0.809174,3.715602 0.938674,15.312311 l 0.13815,12.371223 1.506537,0.575352 c 2.301856,0.879084 4.5032,3.030109 5.802966,5.670308 l 1.140774,2.317242 v 26.212042 26.21205 l -0.942048,1.90895 c -1.398455,2.83382 -2.812571,4.33955 -5.192334,5.52873 l -2.132934,1.06584 -36.127939,-0.0298 C 25.281723,124.73 8.632672,124.5975 8.1541972,124.45195 Z M 47.210065,103.84034 c 1.369703,-1.3697 2.234609,-4.023483 2.359868,-7.240746 0.08315,-2.135666 0.150078,-2.290416 1.529746,-3.536863 2.083604,-1.88241 2.971306,-3.924398 2.953344,-6.793599 -0.03339,-5.333135 -3.765875,-9.017772 -9.152946,-9.035602 -2.888062,-0.0096 -5.473922,1.222752 -7.134591,3.400033 -2.913805,3.820253 -2.316771,9.70838 1.27725,12.596615 1.286886,1.034168 1.310425,1.096632 1.465984,3.890346 0.35888,6.445066 3.662931,9.758236 6.701345,6.719816 z M 71.246325,43.12503 C 71.118759,31.869549 71.069299,31.108257 70.316192,28.807867 68.787157,24.137373 66.928182,21.086749 63.530044,17.671647 60.874619,15.002962 59.885638,14.26981 57.09511,12.901303 53.038632,10.911958 50.60063,10.254866 46.322634,9.9978941 38.826438,9.5476115 32.023032,12.136418 26.534299,17.527678 c -4.228543,4.153449 -6.780853,9.235067 -7.601345,15.134185 -0.200215,1.439495 -0.364028,7.057299 -0.364028,12.484007 v 9.866743 h 26.406065 26.406068 z"
     id="path12" />
  <path
     style="fill:none;fill-opacity:1;stroke-width:0.347083"
     d="m 8.1541972,124.45195 c -2.750379,-0.83663 -5.3708239,-3.30709 -6.8350226,-6.44382 L 0.34708273,115.92563 0.24935597,90.801876 C 0.16308685,68.623661 0.21671492,65.449648 0.70677193,63.729423 1.7667726,60.008543 4.6348134,56.6972 7.6632223,55.697734 l 1.1873874,-0.39187 V 45.171502 c 0,-5.573895 0.1625722,-11.457851 0.3612718,-13.075454 C 11.539445,13.147455 27.97467,-0.74844227 46.836358,0.28474917 62.764463,1.157247 75.726719,11.82796 80.020244,27.602192 c 0.750406,2.756958 0.809174,3.715602 0.938674,15.312311 l 0.13815,12.371223 1.506537,0.575352 c 2.301856,0.879084 4.5032,3.030109 5.802966,5.670308 l 1.140774,2.317242 v 26.212042 26.21205 l -0.942048,1.90895 c -1.398455,2.83382 -2.812571,4.33955 -5.192334,5.52873 l -2.132934,1.06584 -36.127939,-0.0298 C 25.281723,124.73 8.632672,124.5975 8.1541972,124.45195 Z M 47.210065,103.84034 c 1.369703,-1.3697 2.234609,-4.023483 2.359868,-7.240746 0.08315,-2.135666 0.150078,-2.290416 1.529746,-3.536863 2.083604,-1.88241 2.971306,-3.924398 2.953344,-6.793599 -0.03339,-5.333135 -3.765875,-9.017772 -9.152946,-9.035602 -2.888062,-0.0096 -5.473922,1.222752 -7.134591,3.400033 -2.913805,3.820253 -2.316771,9.70838 1.27725,12.596615 1.286886,1.034168 1.310425,1.096632 1.465984,3.890346 0.35888,6.445066 3.662931,9.758236 6.701345,6.719816 z M 71.246325,43.12503 C 71.118759,31.869549 71.069299,31.108257 70.316192,28.807867 68.787157,24.137373 66.928182,21.086749 63.530044,17.671647 60.874619,15.002962 59.885638,14.26981 57.09511,12.901303 53.038632,10.911958 50.60063,10.254866 46.322634,9.9978941 38.826438,9.5476115 32.023032,12.136418 26.534299,17.527678 c -4.228543,4.153449 -6.780853,9.235067 -7.601345,15.134185 -0.200215,1.439495 -0.364028,7.057299 -0.364028,12.484007 v 9.866743 h 26.406065 26.406068 z"
     id="path13" />
  <path
     style="fill:none;fill-opacity:1;stroke-width:0.347083"
     d="m 19.003349,43.298571 c 0.139622,-10.479405 0.211644,-11.569475 0.922391,-13.960581 1.369976,-4.608896 3.290925,-7.808794 6.785725,-11.303594 3.469679,-3.469679 6.576558,-5.340708 11.294094,-6.801546 3.395065,-1.05132 10.051199,-1.138495 13.536227,-0.177283 7.351452,2.027619 13.631612,7.223088 16.831236,13.924193 2.26217,4.737761 2.357906,5.428809 2.513781,18.14527 l 0.141461,11.540501 H 44.940083 18.851902 Z"
     id="path14" />
  <path
     style="fill:none;fill-opacity:1;stroke-width:0.347083"
     d="m 19.003349,43.298571 c 0.139622,-10.479405 0.211644,-11.569475 0.922391,-13.960581 1.369976,-4.608896 3.290925,-7.808794 6.785725,-11.303594 3.469679,-3.469679 6.576558,-5.340708 11.294094,-6.801546 3.395065,-1.05132 10.051199,-1.138495 13.536227,-0.177283 7.351452,2.027619 13.631612,7.223088 16.831236,13.924193 2.26217,4.737761 2.357906,5.428809 2.513781,18.14527 l 0.141461,11.540501 H 44.940083 18.851902 Z"
     id="path15" />
  <path
     style="fill:none;fill-opacity:1;stroke-width:0.347083"
     d="m 19.003349,43.298571 c 0.139622,-10.479405 0.211644,-11.569475 0.922391,-13.960581 1.369976,-4.608896 3.290925,-7.808794 6.785725,-11.303594 3.469679,-3.469679 6.576558,-5.340708 11.294094,-6.801546 3.395065,-1.05132 10.051199,-1.138495 13.536227,-0.177283 7.351452,2.027619 13.631612,7.223088 16.831236,13.924193 2.26217,4.737761 2.357906,5.428809 2.513781,18.14527 l 0.141461,11.540501 H 44.940083 18.851902 Z"
     id="path16" />
  <path
     style="fill:none;fill-opacity:1;stroke-width:0.347083"
     d="m 19.003349,43.298571 c 0.139622,-10.479405 0.211644,-11.569475 0.922391,-13.960581 1.369976,-4.608896 3.290925,-7.808794 6.785725,-11.303594 3.469679,-3.469679 6.576558,-5.340708 11.294094,-6.801546 3.395065,-1.05132 10.051199,-1.138495 13.536227,-0.177283 7.351452,2.027619 13.631612,7.223088 16.831236,13.924193 2.26217,4.737761 2.357906,5.428809 2.513781,18.14527 l 0.141461,11.540501 H 44.940083 18.851902 Z"
     id="path17" />
</svg>
