<?xml version="1.0" encoding="UTF-8" standalone="no"?>
<svg
   enable-background="new 0 0 595.201 841.92"
   viewBox="0 0 63.9 88.5"
   version="1.1"
   id="svg1"
   sodipodi:docname="bomb_sprite.svg"
   width="63.900002"
   height="88.5"
   inkscape:version="1.4.2 (ebf0e94, 2025-05-08)"
   inkscape:export-filename="explosive_icon.svg"
   inkscape:export-xdpi="96"
   inkscape:export-ydpi="96"
   xml:space="preserve"
   xmlns:inkscape="http://www.inkscape.org/namespaces/inkscape"
   xmlns:sodipodi="http://sodipodi.sourceforge.net/DTD/sodipodi-0.dtd"
   xmlns="http://www.w3.org/2000/svg"
   xmlns:svg="http://www.w3.org/2000/svg"><defs
     id="defs1" /><sodipodi:namedview
     id="namedview1"
     pagecolor="#ffffff"
     bordercolor="#000000"
     borderopacity="0.25"
     inkscape:showpageshadow="2"
     inkscape:pageopacity="0.0"
     inkscape:pagecheckerboard="0"
     inkscape:deskcolor="#d1d1d1"
     showgrid="false"
     inkscape:zoom="4.3577683"
     inkscape:cx="3.2126536"
     inkscape:cy="39.010794"
     inkscape:window-width="1366"
     inkscape:window-height="731"
     inkscape:window-x="0"
     inkscape:window-y="0"
     inkscape:window-maximized="1"
     inkscape:current-layer="svg1" /><path
     d="M 46.917464,5.3707941 C 48.0946,4.8740167 49.604853,4.5553509 51.228362,4.6229218 51.937171,9.0489812 49.73158,12.48247 46.877716,13.912283 c -1.63565,0.819543 -3.684411,1.273844 -5.827471,0.865958 -1.934507,-0.368196 -3.3794,-1.182983 -4.590297,-2.401064 C 35.222276,11.131708 34.5602,9.755688 34.105178,7.771858 33.69456,5.9825407 32.417806,4.7201781 30.512735,4.3867516 c -2.222222,-0.3890247 -3.82777,0.7791977 -4.590131,2.2436171 -0.876283,1.6832043 -0.244806,3.6593263 0.119743,5.7074473 1.316004,-0.106113 2.823596,-0.364424 4.310731,-0.432979 0.855328,4.496747 1.596568,9.105673 2.434766,13.619149 9.482944,0.569105 16.077432,3.85269 21.23451,8.738297 5.026859,4.762439 8.925311,11.232027 9.739062,20.035107 0.902892,9.765474 -2.741773,17.299796 -6.984982,22.514729 -4.362288,5.361553 -10.499593,9.625248 -18.759666,11.139527 -4.586139,0.840701 -9.382161,0.688171 -13.490994,-0.275697 C 20.495107,86.730283 16.988314,85.099236 14.068259,83.149357 8.0754765,79.147581 3.6255441,73.529682 1.3356342,66.066375 0.13953928,62.167762 -0.34175923,57.31266 0.25795135,52.919566 0.84036581,48.653414 2.2154094,44.897488 3.9699702,41.780205 7.552767,35.414926 12.887963,30.798945 19.895729,27.846163 19.150498,23.227886 18.208856,18.803467 17.500878,14.14829 c 1.391342,-0.372789 2.793827,-0.734916 4.270817,-1.023405 -0.268422,-1.662376 -0.71147,-3.12171 -0.678541,-4.7627655 0.03144,-1.5715159 0.533188,-3.054304 1.23734,-4.2117021 1.354754,-2.2268883 3.882486,-3.9371543 6.984982,-4.1329787 2.557834,-0.161547 4.679107,0.8210195 6.146618,2.0466445 1.552827,1.2968041 2.464534,3.0920257 2.953816,5.1957447 0.494935,2.1293038 2.334813,3.5512461 4.55005,3.3851061 2.453891,-0.183524 4.549551,-2.2536211 3.951504,-5.2741399 z"
     fill-rule="evenodd"
     id="path1"
     style="stroke-width:0.165154"
     sodipodi:nodetypes="cccscccccccccccccccccccccccccc" /><g
     id="g12"
     transform="matrix(1.442208,-0.30212231,0.30212231,1.442208,-33.875141,-11.465938)"><g
       id="g11"><ellipse
         style="fill:#ffffff;stroke:#ffffff;stroke-width:2.60409"
         id="path2"
         cx="34.054474"
         cy="53.063499"
         rx="10.833044"
         ry="10.353854" /><path
         d="m 26.175781,59.630859 c 0,0 -0.324321,4.791688 0,7.154297 0.132855,0.967818 2.216797,0.520555 2.216797,0.520555 v -2.606492 h 1.253906 v 2.702138 h 2.283203 v -2.702138 h 1.253907 v 2.702138 h 2.216797 v -2.702138 h 1.253906 v 2.702138 h 1.955078 v -2.702138 h 1.253906 l -0.186611,2.583566 c 0,0 2.203379,0.338144 2.315517,-0.497629 0.31713,-2.363585 0,-7.154297 0,-7.154297 z"
         style="fill:#ffffff;stroke:#ffffff;stroke-width:0"
         id="path11"
         sodipodi:nodetypes="csccccccccccccccccscc" /></g><circle
       style="fill:#000000;fill-opacity:1;stroke:#ffffff;stroke-width:0;stroke-dasharray:none"
       id="path8"
       cy="54.009068"
       cx="28.981371"
       r="3.5" /><circle
       style="fill:#000000;fill-opacity:1;stroke:#ffffff;stroke-width:0;stroke-dasharray:none"
       id="circle8"
       cy="53.712917"
       cx="39.580143"
       r="3.5" /></g></svg>
