<?xml version="1.0" encoding="UTF-8" standalone="no"?>
<svg
   enable-background="new 0 0 595.201 841.92"
   viewBox="0 0 66.880011 91.364494"
   version="1.1"
   id="svg1"
   sodipodi:docname="bomb_sprite.svg"
   width="66.880013"
   height="91.364494"
   inkscape:version="1.4.2 (ebf0e94, 2025-05-08)"
   inkscape:export-filename="explosive_icon.svg"
   inkscape:export-xdpi="96"
   inkscape:export-ydpi="96"
   xml:space="preserve"
   xmlns:inkscape="http://www.inkscape.org/namespaces/inkscape"
   xmlns:sodipodi="http://sodipodi.sourceforge.net/DTD/sodipodi-0.dtd"
   xmlns="http://www.w3.org/2000/svg"
   xmlns:svg="http://www.w3.org/2000/svg"><defs
     id="defs1" /><sodipodi:namedview
     id="namedview1"
     pagecolor="#ffffff"
     bordercolor="#000000"
     borderopacity="0.25"
     inkscape:showpageshadow="2"
     inkscape:pageopacity="0.0"
     inkscape:pagecheckerboard="0"
     inkscape:deskcolor="#d1d1d1"
     showgrid="false"
     inkscape:zoom="3.4302634"
     inkscape:cx="26.382814"
     inkscape:cy="48.975831"
     inkscape:window-width="1366"
     inkscape:window-height="731"
     inkscape:window-x="0"
     inkscape:window-y="0"
     inkscape:window-maximized="1"
     inkscape:current-layer="g1" /><g
     id="g7"
     transform="matrix(1.0604871,0,0,1.0604871,-2.2319992,-2.8556547)"><g
       id="g9"><g
         id="g10"><g
           id="g1"><g
             id="g4"
             transform="translate(0,13.110944)" /><g
             id="g2"><path
               id="rect4"
               style="stroke:#f2f2f2;stroke-width:0"
               d="M 21.997505,22.293292 37.3054,20.843494 40.224841,42.578569 23.148464,41.4598 Z"
               sodipodi:nodetypes="ccccc" /><path
               d="m 37.071778,2.7559103 c -3.305592,0.044503 -6.227502,1.5162768 -8.121094,3.6738282 -1.12481,1.2815484 -2.070178,3.0117984 -2.451172,4.9531255 -0.393182,2.002778 -0.170791,3.88599 -0.193359,5.974609 l 5.457031,-0.607422 c -0.04426,-2.397173 -0.233208,-4.722755 1.101563,-6.464844 1.26379,-1.6494871 3.507568,-2.7491031 6.177734,-1.7832031 2.289103,0.827951 3.599137,2.6709811 3.71875,4.9785161 0.132327,2.558333 0.652764,4.409319 1.916016,6.222656 1.23602,1.773558 2.847989,3.099101 5.166015,3.976562 2.567926,0.972053 5.208027,0.853357 7.414063,0.19336 3.84904,-1.1514 7.33144,-4.927225 7.416015,-10.56836 -0.744078,-1.990794 -5.223411,-1.797469 -5.509765,-0.01172 0.08401,3.874617 -2.962954,5.984279 -6.044922,5.677735 C 50.336322,18.694597 48.366455,16.532566 48.216309,13.785206 48.067602,11.070794 47.325876,8.6467869 45.683106,6.7012218 44.324671,5.0923078 42.306723,3.606951 39.675294,3.0215343 39.299376,2.9379043 38.910032,2.870776 38.509278,2.8262218 c -0.486088,-0.054057 -0.965273,-0.07667 -1.4375,-0.070311 z"
               style="fill-rule:evenodd;stroke-width:0.207868"
               id="path7"
               sodipodi:nodetypes="sccccccccsccccccscs" /><ellipse
               style="fill:#000000;stroke:#f2f2f2;stroke-width:0"
               id="path3"
               cx="31.950001"
               cy="44.25"
               rx="29.845308"
               ry="31.485161"
               transform="translate(0,13.110944)" /><g
               id="g12"
               transform="matrix(1.442208,-0.30212231,0.30212231,1.442208,-33.195301,-11.673111)"><g
                 id="g11"><ellipse
                   style="fill:#ffffff;stroke:#ffffff;stroke-width:2.60409"
                   id="path2"
                   cx="34.054474"
                   cy="53.063499"
                   rx="10.833044"
                   ry="10.353854" /><path
                   d="m 26.175781,59.630859 c 0,0 -0.324321,4.791688 0,7.154297 0.132855,0.967818 2.216797,0.520555 2.216797,0.520555 v -2.606492 h 1.253906 v 2.702138 h 2.283203 v -2.702138 h 1.253907 v 2.702138 h 2.216797 v -2.702138 h 1.253906 v 2.702138 h 1.955078 v -2.702138 h 1.253906 l -0.186611,2.583566 c 0,0 2.203379,0.338144 2.315517,-0.497629 0.31713,-2.363585 0,-7.154297 0,-7.154297 z"
                   style="fill:#ffffff;stroke:#ffffff;stroke-width:0"
                   id="path11"
                   sodipodi:nodetypes="csccccccccccccccccscc" /></g><circle
                 style="fill:#000000;fill-opacity:1;stroke:#ffffff;stroke-width:0;stroke-dasharray:none"
                 id="path8"
                 cy="54.009068"
                 cx="28.981371"
                 r="3.5" /><circle
                 style="fill:#000000;fill-opacity:1;stroke:#ffffff;stroke-width:0;stroke-dasharray:none"
                 id="circle8"
                 cy="53.712917"
                 cx="39.580143"
                 r="3.5" /></g><path
               id="rect5"
               style="stroke:#f2f2f2;stroke-width:0"
               d="M 23.189411,16.563224 35.298742,15.4631 36.16218,25.939359 23.938354,27.669198 Z"
               sodipodi:nodetypes="ccccc" /></g></g></g></g></g></svg>
